Nobel-Black_Italic.ufo
<glyph name="exclam" format="1">
  <advance width="366"/>
  <unicode hex="0021"/>
  <outline>
    <contour>
      <point x="363" y="730" type="line"/>
      <point x="327" y="523" type="line"/>
      <point x="245" y="267" type="line"/>
      <point x="82" y="267" type="line"/>
      <point x="91" y="523" type="line"/>
      <point x="127" y="730" type="line"/>
    </contour>
    <contour>
      <point x="270" y="204" type="line"/>
      <point x="235" y="0" type="line"/>
      <point x="-1" y="0" type="line"/>
      <point x="34" y="204" type="line"/>
    </contour>
  </outline>
</glyph>
<glyph name="quotedbl" format="1">
  <advance width="590"/>
  <unicode hex="0022"/>
  <outline>
    <contour>
      <point x="610" y="730" type="line"/>
      <point x="579" y="553" type="line"/>
      <point x="504" y="366" type="line"/>
      <point x="370" y="366" type="line"/>
      <point x="361" y="553" type="line"/>
      <point x="392" y="730" type="line"/>
    </contour>
    <contour>
      <point x="320" y="730" type="line"/>
      <point x="289" y="553" type="line"/>
      <point x="214" y="366" type="line"/>
      <point x="80" y="366" type="line"/>
      <point x="71" y="553" type="line"/>
      <point x="102" y="730" type="line"/>
    </contour>
  </outline>
</glyph>
<glyph name="numbersign" format="1">
  <advance width="686"/>
  <unicode hex="0023"/>
  <outline>
    <contour>
      <point x="673" y="603" type="line"/>
      <point x="642" y="427" type="line"/>
      <point x="547" y="427" type="line"/>
      <point x="514" y="303" type="line"/>
      <point x="620" y="303" type="line"/>
      <point x="589" y="127" type="line"/>
      <point x="467" y="127" type="line"/>
      <point x="434" y="0" type="line"/>
      <point x="309" y="0" type="line"/>
      <point x="342" y="127" type="line"/>
      <point x="218" y="127" type="line"/>
      <point x="185" y="0" type="line"/>
      <point x="60" y="0" type="line"/>
      <point x="93" y="127" type="line"/>
      <point x="13" y="127" type="line"/>
      <point x="44" y="303" type="line"/>
      <point x="139" y="303" type="line"/>
      <point x="172" y="427" type="line"/>
      <point x="66" y="427" type="line"/>
      <point x="97" y="603" type="line"/>
      <point x="219" y="603" type="line"/>
      <point x="252" y="730" type="line"/>
      <point x="377" y="730" type="line"/>
      <point x="344" y="603" type="line"/>
      <point x="468" y="603" type="line"/>
      <point x="501" y="730" type="line"/>
      <point x="626" y="730" type="line"/>
      <point x="593" y="603" type="line"/>
    </contour>
    <contour>
      <point x="427" y="432" type="line"/>
      <point x="296" y="432" type="line"/>
      <point x="259" y="298" type="line"/>
      <point x="390" y="298" type="line"/>
    </contour>
  </outline>
</glyph>
<glyph name="dollar" format="1">
  <advance width="740"/>
  <unicode hex="0024"/>
  <outline>
    <contour>
      <point x="734" y="630" type="curve"/>
      <point x="632" y="489" type="line"/>
      <point x="590" y="517"/>
      <point x="529" y="549"/>
      <point x="456" y="565" type="curve"/>
      <point x="433" y="436" type="line"/>
      <point x="603" y="393"/>
      <point x="693" y="345"/>
      <point x="693" y="225" type="curve" smooth="yes"/>
      <point x="693" y="84"/>
      <point x="567" y="4"/>
      <point x="366" y="-3" type="curve"/>
      <point x="352" y="-100" type="line"/>
      <point x="220" y="-100" type="line"/>
      <point x="240" y="4" type="line"/>
      <point x="133" y="20"/>
      <point x="43" y="64"/>
      <point x="-25" y="116" type="curve"/>
      <point x="84" y="250" type="line"/>
      <point x="132" y="213"/>
      <point x="208" y="175"/>
      <point x="280" y="160" type="curve"/>
      <point x="300" y="282" type="line"/>
      <point x="116" y="326"/>
      <point x="55" y="397"/>
      <point x="55" y="490" type="curve" smooth="yes"/>
      <point x="55" y="623"/>
      <point x="171" y="730"/>
      <point x="367" y="733" type="curve"/>
      <point x="379" y="800" type="line"/>
      <point x="511" y="800" type="line"/>
      <point x="497" y="724" type="line"/>
      <point x="602" y="708"/>
      <point x="678" y="671"/>
    </contour>
    <contour>
      <point x="349" y="575" type="line"/>
      <point x="286" y="572"/>
      <point x="258" y="549"/>
      <point x="258" y="523" type="curve" smooth="yes"/>
      <point x="258" y="495"/>
      <point x="270" y="482"/>
      <point x="331" y="464" type="curve"/>
    </contour>
    <contour>
      <point x="490" y="205" type="curve" smooth="yes"/>
      <point x="490" y="230"/>
      <point x="462" y="246"/>
      <point x="403" y="261" type="curve"/>
      <point x="384" y="155" type="line"/>
      <point x="466" y="159"/>
      <point x="490" y="175"/>
    </contour>
  </outline>
</glyph>
<glyph name="percent" format="1">
  <advance width="860"/>
  <unicode hex="0025"/>
  <outline>
    <contour>
      <point x="404" y="574" type="curve" smooth="yes"/>
      <point x="404" y="441"/>
      <point x="312" y="346"/>
      <point x="200" y="344" type="curve" smooth="yes"/>
      <point x="105" y="343"/>
      <point x="32" y="415"/>
      <point x="32" y="515" type="curve" smooth="yes"/>
      <point x="32" y="629"/>
      <point x="120" y="742"/>
      <point x="236" y="742" type="curve" smooth="yes"/>
      <point x="331" y="742"/>
      <point x="404" y="681"/>
    </contour>
    <contour>
      <point x="819" y="730" type="line"/>
      <point x="192" y="0" type="line"/>
      <point x="41" y="0" type="line"/>
      <point x="668" y="730" type="line"/>
    </contour>
    <contour>
      <point x="827" y="217" type="curve" smooth="yes"/>
      <point x="827" y="84"/>
      <point x="735" y="-11"/>
      <point x="623" y="-13" type="curve" smooth="yes"/>
      <point x="528" y="-14"/>
      <point x="455" y="58"/>
      <point x="455" y="158" type="curve" smooth="yes"/>
      <point x="455" y="272"/>
      <point x="543" y="385"/>
      <point x="659" y="385" type="curve" smooth="yes"/>
      <point x="754" y="385"/>
      <point x="827" y="324"/>
    </contour>
    <contour>
      <point x="274" y="577" type="curve" smooth="yes"/>
      <point x="274" y="622"/>
      <point x="258" y="641"/>
      <point x="232" y="641" type="curve" smooth="yes"/>
      <point x="191" y="641"/>
      <point x="162" y="564"/>
      <point x="162" y="514" type="curve" smooth="yes"/>
      <point x="162" y="473"/>
      <point x="174" y="445"/>
      <point x="203" y="445" type="curve" smooth="yes"/>
      <point x="251" y="445"/>
      <point x="274" y="521"/>
    </contour>
    <contour>
      <point x="697" y="220" type="curve" smooth="yes"/>
      <point x="697" y="265"/>
      <point x="681" y="284"/>
      <point x="655" y="284" type="curve" smooth="yes"/>
      <point x="614" y="284"/>
      <point x="585" y="207"/>
      <point x="585" y="157" type="curve" smooth="yes"/>
      <point x="585" y="116"/>
      <point x="597" y="88"/>
      <point x="626" y="88" type="curve" smooth="yes"/>
      <point x="674" y="88"/>
      <point x="697" y="164"/>
    </contour>
  </outline>
</glyph>
<glyph name="ampersand" format="1">
  <advance width="775"/>
  <unicode hex="0026"/>
  <outline>
    <contour>
      <point x="730" y="226" type="line"/>
      <point x="689" y="188"/>
      <point x="649" y="155"/>
      <point x="611" y="127" type="curve"/>
      <point x="692" y="0" type="line"/>
      <point x="464" y="0" type="line"/>
      <point x="444" y="33" type="line"/>
      <point x="376" y="5"/>
      <point x="314" y="-7"/>
      <point x="265" y="-7" type="curve" smooth="yes"/>
      <point x="97" y="-7"/>
      <point x="2" y="61"/>
      <point x="2" y="182" type="curve" smooth="yes"/>
      <point x="2" y="313"/>
      <point x="114" y="383"/>
      <point x="206" y="424" type="curve"/>
      <point x="195" y="442" type="line" smooth="yes"/>
      <point x="176" y="473"/>
      <point x="167" y="508"/>
      <point x="167" y="542" type="curve" smooth="yes"/>
      <point x="167" y="655"/>
      <point x="268" y="741"/>
      <point x="405" y="741" type="curve" smooth="yes"/>
      <point x="528" y="741"/>
      <point x="606" y="684"/>
      <point x="606" y="582" type="curve" smooth="yes"/>
      <point x="606" y="488"/>
      <point x="529" y="440"/>
      <point x="438" y="398" type="curve"/>
      <point x="522" y="266" type="line"/>
      <point x="559" y="297"/>
      <point x="596" y="330"/>
      <point x="628" y="361" type="curve"/>
    </contour>
    <contour>
      <point x="437" y="574" type="curve" smooth="yes"/>
      <point x="437" y="597"/>
      <point x="424" y="613"/>
      <point x="398" y="613" type="curve" smooth="yes"/>
      <point x="372" y="613"/>
      <point x="348" y="593"/>
      <point x="348" y="563" type="curve" smooth="yes"/>
      <point x="348" y="546"/>
      <point x="353" y="532"/>
      <point x="367" y="510" type="curve" smooth="yes"/>
      <point x="378" y="493" type="line"/>
      <point x="413" y="512"/>
      <point x="437" y="537"/>
    </contour>
    <contour>
      <point x="362" y="168" type="curve"/>
      <point x="274" y="312" type="line"/>
      <point x="247" y="290"/>
      <point x="230" y="264"/>
      <point x="230" y="226" type="curve" smooth="yes"/>
      <point x="230" y="189"/>
      <point x="252" y="160"/>
      <point x="321" y="160" type="curve" smooth="yes"/>
      <point x="334" y="160"/>
      <point x="347" y="163"/>
    </contour>
  </outline>
</glyph>
<glyph name="quotesingle" format="1">
  <advance width="300"/>
  <unicode hex="0027"/>
  <outline>
    <contour>
      <point x="322" y="730" type="line"/>
      <point x="291" y="553" type="line"/>
      <point x="216" y="366" type="line"/>
      <point x="82" y="366" type="line"/>
      <point x="73" y="553" type="line"/>
      <point x="104" y="730" type="line"/>
    </contour>
  </outline>
</glyph>
<glyph name="parenleft" format="1">
  <advance width="442"/>
  <unicode hex="0028"/>
  <outline>
    <contour>
      <point x="17" y="191" type="curve" smooth="yes"/>
      <point x="17" y="503"/>
      <point x="250" y="701"/>
      <point x="476" y="742" type="curve"/>
      <point x="450" y="591" type="line"/>
      <point x="318" y="499"/>
      <point x="259" y="336"/>
      <point x="259" y="169" type="curve" smooth="yes"/>
      <point x="259" y="70"/>
      <point x="287" y="17"/>
      <point x="341" y="-28" type="curve"/>
      <point x="314" y="-179" type="line"/>
      <point x="149" y="-135"/>
      <point x="17" y="-16"/>
    </contour>
  </outline>
</glyph>
<glyph name="parenright" format="1">
  <advance width="442"/>
  <unicode hex="0029"/>
  <outline>
    <contour>
      <point x="397" y="371" type="curve" smooth="yes"/>
      <point x="397" y="59"/>
      <point x="164" y="-139"/>
      <point x="-62" y="-180" type="curve"/>
      <point x="-36" y="-29" type="line"/>
      <point x="96" y="63"/>
      <point x="155" y="226"/>
      <point x="155" y="393" type="curve" smooth="yes"/>
      <point x="155" y="492"/>
      <point x="127" y="545"/>
      <point x="73" y="590" type="curve"/>
      <point x="100" y="741" type="line"/>
      <point x="265" y="697"/>
      <point x="397" y="578"/>
    </contour>
  </outline>
</glyph>
<glyph name="asterisk" format="1">
  <advance width="472"/>
  <unicode hex="002A"/>
  <outline>
    <contour>
      <point x="56" y="507" type="line"/>
      <point x="168" y="572" type="line"/>
      <point x="116" y="691" type="line"/>
      <point x="174" y="732" type="line"/>
      <point x="271" y="647" type="line"/>
      <point x="368" y="732" type="line"/>
      <point x="426" y="691" type="line"/>
      <point x="374" y="572" type="line"/>
      <point x="486" y="507" type="line"/>
      <point x="464" y="439" type="line"/>
      <point x="335" y="452" type="line"/>
      <point x="305" y="327" type="line"/>
      <point x="237" y="327" type="line"/>
      <point x="207" y="452" type="line"/>
      <point x="78" y="439" type="line"/>
    </contour>
  </outline>
</glyph>
<glyph name="plus" format="1">
  <advance width="562"/>
  <unicode hex="002B"/>
  <outline>
    <contour>
      <point x="542" y="426" type="line"/>
      <point x="508" y="236" type="line"/>
      <point x="359" y="236" type="line"/>
      <point x="332" y="85" type="line"/>
      <point x="138" y="85" type="line"/>
      <point x="165" y="236" type="line"/>
      <point x="16" y="236" type="line"/>
      <point x="50" y="426" type="line"/>
      <point x="199" y="426" type="line"/>
      <point x="225" y="577" type="line"/>
      <point x="419" y="577" type="line"/>
      <point x="393" y="426" type="line"/>
    </contour>
  </outline>
</glyph>
<glyph name="comma" format="1">
  <advance width="288"/>
  <unicode hex="002C"/>
  <outline>
    <contour>
      <point x="229" y="212" type="line"/>
      <point x="205" y="73" type="line" smooth="yes"/>
      <point x="187" y="-29"/>
      <point x="131" y="-103"/>
      <point x="36" y="-160" type="curve"/>
      <point x="-70" y="-81" type="line"/>
      <point x="-40" y="-46"/>
      <point x="-25" y="-5"/>
      <point x="-16" y="45" type="curve" smooth="yes"/>
      <point x="13" y="212" type="line"/>
    </contour>
  </outline>
</glyph>
<glyph name="hyphen" format="1">
  <advance width="416"/>
  <unicode hex="002D"/>
  <unicode hex="2010"/>
  <unicode hex="2011"/>
  <outline>
    <contour>
      <point x="396" y="385" type="line"/>
      <point x="362" y="193" type="line"/>
      <point x="2" y="193" type="line"/>
      <point x="36" y="385" type="line"/>
    </contour>
  </outline>
</glyph>
<glyph name="period" format="1">
  <advance width="288"/>
  <unicode hex="002E"/>
  <outline>
    <contour>
      <point x="225" y="212" type="line"/>
      <point x="188" y="0" type="line"/>
      <point x="-28" y="0" type="line"/>
      <point x="9" y="212" type="line"/>
    </contour>
  </outline>
</glyph>
<glyph name="zero" format="1">
  <advance width="724"/>
  <unicode hex="0030"/>
  <outline>
    <contour>
      <point x="702" y="429" type="curve" smooth="yes"/>
      <point x="702" y="192"/>
      <point x="546" y="-14"/>
      <point x="321" y="-14" type="curve" smooth="yes"/>
      <point x="123" y="-14"/>
      <point x="23" y="122"/>
      <point x="23" y="306" type="curve" smooth="yes"/>
      <point x="23" y="537"/>
      <point x="180" y="743"/>
      <point x="401" y="743" type="curve" smooth="yes"/>
      <point x="596" y="743"/>
      <point x="702" y="608"/>
    </contour>
    <contour>
      <point x="468" y="443" type="curve" smooth="yes"/>
      <point x="468" y="520"/>
      <point x="440" y="557"/>
      <point x="391" y="557" type="curve" smooth="yes"/>
      <point x="303" y="557"/>
      <point x="256" y="417"/>
      <point x="256" y="297" type="curve" smooth="yes"/>
      <point x="256" y="220"/>
      <point x="283" y="175"/>
      <point x="333" y="175" type="curve" smooth="yes"/>
      <point x="417" y="175"/>
      <point x="468" y="303"/>
    </contour>
  </outline>
</glyph>
<glyph name="one" format="1">
  <advance width="466"/>
  <unicode hex="0031"/>
  <outline>
    <contour>
      <point x="470" y="730" type="line"/>
      <point x="341" y="0" type="line"/>
      <point x="106" y="0" type="line"/>
      <point x="186" y="454" type="line"/>
      <point x="146" y="423"/>
      <point x="88" y="409"/>
      <point x="25" y="405" type="curve"/>
      <point x="57" y="583" type="line"/>
      <point x="143" y="594"/>
      <point x="210" y="622"/>
      <point x="278" y="730" type="curve"/>
    </contour>
  </outline>
</glyph>
<glyph name="two" format="1">
  <advance width="618"/>
  <unicode hex="0032"/>
  <outline>
    <contour>
      <point x="616" y="537" type="curve" smooth="yes"/>
      <point x="616" y="445"/>
      <point x="571" y="389"/>
      <point x="497" y="320" type="curve" smooth="yes"/>
      <point x="353" y="185" type="line"/>
      <point x="550" y="185" type="line"/>
      <point x="517" y="0" type="line"/>
      <point x="-58" y="0" type="line"/>
      <point x="313" y="402" type="line" smooth="yes"/>
      <point x="352" y="445"/>
      <point x="379" y="478"/>
      <point x="379" y="507" type="curve" smooth="yes"/>
      <point x="379" y="539"/>
      <point x="358" y="555"/>
      <point x="328" y="555" type="curve" smooth="yes"/>
      <point x="295" y="555"/>
      <point x="266" y="531"/>
      <point x="259" y="474" type="curve" smooth="yes"/>
      <point x="256" y="451" type="line"/>
      <point x="44" y="451" type="line"/>
      <point x="46" y="484" type="line" smooth="yes"/>
      <point x="56" y="657"/>
      <point x="188" y="742"/>
      <point x="345" y="742" type="curve" smooth="yes"/>
      <point x="511" y="742"/>
      <point x="616" y="665"/>
    </contour>
  </outline>
</glyph>
<glyph name="three" format="1">
  <advance width="600"/>
  <unicode hex="0033"/>
  <outline>
    <contour>
      <point x="589" y="556" type="curve" smooth="yes"/>
      <point x="589" y="451"/>
      <point x="516" y="399"/>
      <point x="464" y="375" type="curve"/>
      <point x="516" y="348"/>
      <point x="551" y="304"/>
      <point x="551" y="237" type="curve" smooth="yes"/>
      <point x="551" y="100"/>
      <point x="432" y="-11"/>
      <point x="254" y="-11" type="curve" smooth="yes"/>
      <point x="134" y="-11"/>
      <point x="33" y="18"/>
      <point x="-22" y="65" type="curve"/>
      <point x="95" y="217" type="line"/>
      <point x="135" y="189"/>
      <point x="186" y="169"/>
      <point x="246" y="169" type="curve" smooth="yes"/>
      <point x="296" y="169"/>
      <point x="320" y="198"/>
      <point x="320" y="238" type="curve" smooth="yes"/>
      <point x="320" y="272"/>
      <point x="290" y="295"/>
      <point x="233" y="295" type="curve" smooth="yes"/>
      <point x="190" y="295" type="line"/>
      <point x="218" y="451" type="line"/>
      <point x="260" y="451" type="line" smooth="yes"/>
      <point x="313" y="451"/>
      <point x="350" y="472"/>
      <point x="350" y="514" type="curve" smooth="yes"/>
      <point x="350" y="544"/>
      <point x="319" y="561"/>
      <point x="282" y="561" type="curve" smooth="yes"/>
      <point x="250" y="561"/>
      <point x="198" y="545"/>
      <point x="171" y="514" type="curve"/>
      <point x="54" y="629" type="line"/>
      <point x="102" y="683"/>
      <point x="191" y="741"/>
      <point x="329" y="741" type="curve" smooth="yes"/>
      <point x="475" y="741"/>
      <point x="589" y="673"/>
    </contour>
  </outline>
</glyph>
<glyph name="four" format="1">
  <advance width="660"/>
  <unicode hex="0034"/>
  <outline>
    <contour>
      <point x="636" y="308" type="line"/>
      <point x="609" y="153" type="line"/>
      <point x="525" y="153" type="line"/>
      <point x="498" y="0" type="line"/>
      <point x="278" y="0" type="line"/>
      <point x="305" y="153" type="line"/>
      <point x="-27" y="153" type="line"/>
      <point x="-3" y="287" type="line"/>
      <point x="394" y="730" type="line"/>
      <point x="627" y="730" type="line"/>
      <point x="552" y="308" type="line"/>
    </contour>
    <contour>
      <point x="365" y="494" type="line"/>
      <point x="200" y="308" type="line"/>
      <point x="332" y="308" type="line"/>
    </contour>
  </outline>
</glyph>
<glyph name="five" format="1">
  <advance width="610"/>
  <unicode hex="0035"/>
  <outline>
    <contour>
      <point x="599" y="730" type="line"/>
      <point x="567" y="550" type="line"/>
      <point x="280" y="550" type="line"/>
      <point x="257" y="465" type="line"/>
      <point x="289" y="481"/>
      <point x="319" y="492"/>
      <point x="361" y="492" type="curve" smooth="yes"/>
      <point x="465" y="492"/>
      <point x="572" y="433"/>
      <point x="572" y="297" type="curve" smooth="yes"/>
      <point x="572" y="144"/>
      <point x="461" y="-12"/>
      <point x="245" y="-12" type="curve" smooth="yes"/>
      <point x="121" y="-12"/>
      <point x="23" y="42"/>
      <point x="-36" y="111" type="curve"/>
      <point x="97" y="248" type="line"/>
      <point x="138" y="201"/>
      <point x="184" y="170"/>
      <point x="241" y="170" type="curve" smooth="yes"/>
      <point x="306" y="170"/>
      <point x="342" y="217"/>
      <point x="342" y="264" type="curve" smooth="yes"/>
      <point x="342" y="304"/>
      <point x="310" y="328"/>
      <point x="257" y="328" type="curve" smooth="yes"/>
      <point x="218" y="328"/>
      <point x="180" y="310"/>
      <point x="137" y="282" type="curve"/>
      <point x="38" y="339" type="line"/>
      <point x="146" y="730" type="line"/>
    </contour>
  </outline>
</glyph>
<glyph name="six" format="1">
  <advance width="676"/>
  <unicode hex="0036"/>
  <outline>
    <contour>
      <point x="641" y="277" type="curve" smooth="yes"/>
      <point x="641" y="99"/>
      <point x="482" y="-12"/>
      <point x="303" y="-12" type="curve" smooth="yes"/>
      <point x="121" y="-12"/>
      <point x="10" y="91"/>
      <point x="10" y="249" type="curve" smooth="yes"/>
      <point x="10" y="476"/>
      <point x="208" y="663"/>
      <point x="425" y="757" type="curve"/>
      <point x="555" y="609" type="line"/>
      <point x="454" y="576"/>
      <point x="345" y="509"/>
      <point x="304" y="455" type="curve"/>
      <point x="340" y="474"/>
      <point x="373" y="482"/>
      <point x="411" y="482" type="curve" smooth="yes"/>
      <point x="504" y="482"/>
      <point x="641" y="430"/>
    </contour>
    <contour>
      <point x="407" y="256" type="curve" smooth="yes"/>
      <point x="407" y="300"/>
      <point x="373" y="330"/>
      <point x="326" y="330" type="curve" smooth="yes"/>
      <point x="273" y="330"/>
      <point x="234" y="288"/>
      <point x="234" y="236" type="curve" smooth="yes"/>
      <point x="234" y="190"/>
      <point x="262" y="160"/>
      <point x="316" y="160" type="curve" smooth="yes"/>
      <point x="371" y="160"/>
      <point x="407" y="206"/>
    </contour>
  </outline>
</glyph>
<glyph name="seven" format="1">
  <advance width="663"/>
  <unicode hex="0037"/>
  <outline>
    <contour>
      <point x="726" y="730" type="line"/>
      <point x="258" y="0" type="line"/>
      <point x="-3" y="0" type="line"/>
      <point x="360" y="542" type="line"/>
      <point x="80" y="542" type="line"/>
      <point x="113" y="730" type="line"/>
    </contour>
  </outline>
</glyph>
<glyph name="eight" format="1">
  <advance width="670"/>
  <unicode hex="0038"/>
  <outline>
    <contour>
      <point x="647" y="551" type="curve" smooth="yes"/>
      <point x="647" y="463"/>
      <point x="595" y="413"/>
      <point x="525" y="379" type="curve"/>
      <point x="587" y="343"/>
      <point x="622" y="294"/>
      <point x="622" y="225" type="curve" smooth="yes"/>
      <point x="622" y="105"/>
      <point x="516" y="-12"/>
      <point x="316" y="-12" type="curve" smooth="yes"/>
      <point x="150" y="-12"/>
      <point x="-6" y="55"/>
      <point x="-6" y="194" type="curve" smooth="yes"/>
      <point x="-6" y="304"/>
      <point x="59" y="369"/>
      <point x="155" y="405" type="curve"/>
      <point x="115" y="433"/>
      <point x="85" y="472"/>
      <point x="85" y="525" type="curve" smooth="yes"/>
      <point x="85" y="634"/>
      <point x="181" y="742"/>
      <point x="371" y="742" type="curve" smooth="yes"/>
      <point x="528" y="742"/>
      <point x="647" y="676"/>
    </contour>
    <contour>
      <point x="436" y="530" type="curve" smooth="yes"/>
      <point x="436" y="565"/>
      <point x="408" y="586"/>
      <point x="366" y="586" type="curve" smooth="yes"/>
      <point x="323" y="586"/>
      <point x="290" y="558"/>
      <point x="290" y="514" type="curve" smooth="yes"/>
      <point x="290" y="473"/>
      <point x="318" y="455"/>
      <point x="361" y="455" type="curve" smooth="yes"/>
      <point x="401" y="455"/>
      <point x="436" y="484"/>
    </contour>
    <contour>
      <point x="413" y="236" type="curve" smooth="yes"/>
      <point x="413" y="281"/>
      <point x="368" y="305"/>
      <point x="312" y="305" type="curve" smooth="yes"/>
      <point x="248" y="305"/>
      <point x="211" y="269"/>
      <point x="211" y="224" type="curve" smooth="yes"/>
      <point x="211" y="181"/>
      <point x="249" y="149"/>
      <point x="308" y="149" type="curve" smooth="yes"/>
      <point x="365" y="149"/>
      <point x="413" y="181"/>
    </contour>
  </outline>
</glyph>
<glyph name="nine" format="1">
  <advance width="676"/>
  <unicode hex="0039"/>
  <outline>
    <contour>
      <point x="668" y="477" type="curve" smooth="yes"/>
      <point x="668" y="258"/>
      <point x="469" y="63"/>
      <point x="253" y="-28" type="curve"/>
      <point x="122" y="118" type="line"/>
      <point x="223" y="151"/>
      <point x="333" y="220"/>
      <point x="374" y="274" type="curve"/>
      <point x="338" y="255"/>
      <point x="308" y="247"/>
      <point x="268" y="247" type="curve" smooth="yes"/>
      <point x="143" y="247"/>
      <point x="36" y="317"/>
      <point x="36" y="455" type="curve" smooth="yes"/>
      <point x="36" y="621"/>
      <point x="183" y="741"/>
      <point x="371" y="741" type="curve" smooth="yes"/>
      <point x="548" y="741"/>
      <point x="668" y="643"/>
    </contour>
    <contour>
      <point x="444" y="495" type="curve" smooth="yes"/>
      <point x="444" y="543"/>
      <point x="411" y="569"/>
      <point x="362" y="569" type="curve" smooth="yes"/>
      <point x="308" y="569"/>
      <point x="269" y="523"/>
      <point x="269" y="473" type="curve" smooth="yes"/>
      <point x="269" y="427"/>
      <point x="308" y="399"/>
      <point x="355" y="399" type="curve" smooth="yes"/>
      <point x="411" y="399"/>
      <point x="444" y="451"/>
    </contour>
  </outline>
</glyph>
<glyph name="colon" format="1">
  <advance width="288"/>
  <unicode hex="003A"/>
  <outline>
    <contour>
      <point x="269" y="461" type="line"/>
      <point x="234" y="262" type="line"/>
      <point x="18" y="262" type="line"/>
      <point x="53" y="461" type="line"/>
    </contour>
    <contour>
      <point x="223" y="199" type="line"/>
      <point x="188" y="0" type="line"/>
      <point x="-28" y="0" type="line"/>
      <point x="7" y="199" type="line"/>
    </contour>
  </outline>
</glyph>
<glyph name="semicolon" format="1">
  <advance width="288"/>
  <unicode hex="003B"/>
  <outline>
    <contour>
      <point x="269" y="461" type="line"/>
      <point x="234" y="262" type="line"/>
      <point x="18" y="262" type="line"/>
      <point x="53" y="461" type="line"/>
    </contour>
    <contour>
      <point x="223" y="199" type="line"/>
      <point x="201" y="73" type="line" smooth="yes"/>
      <point x="183" y="-29"/>
      <point x="127" y="-103"/>
      <point x="32" y="-160" type="curve"/>
      <point x="-74" y="-81" type="line"/>
      <point x="-44" y="-46"/>
      <point x="-29" y="-5"/>
      <point x="-20" y="45" type="curve" smooth="yes"/>
      <point x="7" y="199" type="line"/>
    </contour>
  </outline>
</glyph>
<glyph name="less" format="1">
  <advance width="480"/>
  <unicode hex="003C"/>
  <outline>
    <contour>
      <point x="469" y="600" type="line"/>
      <point x="436" y="410" type="line"/>
      <point x="230" y="325" type="line"/>
      <point x="406" y="239" type="line"/>
      <point x="372" y="47" type="line"/>
      <point x="30" y="242" type="line"/>
      <point x="59" y="407" type="line"/>
    </contour>
  </outline>
</glyph>
<glyph name="equal" format="1">
  <advance width="562"/>
  <unicode hex="003D"/>
  <outline>
    <contour>
      <point x="549" y="548" type="line"/>
      <point x="518" y="373" type="line"/>
      <point x="46" y="373" type="line"/>
      <point x="77" y="548" type="line"/>
    </contour>
    <contour>
      <point x="504" y="293" type="line"/>
      <point x="473" y="118" type="line"/>
      <point x="1" y="118" type="line"/>
      <point x="32" y="293" type="line"/>
    </contour>
  </outline>
</glyph>
<glyph name="greater" format="1">
  <advance width="480"/>
  <unicode hex="003E"/>
  <outline>
    <contour>
      <point x="438" y="405" type="line"/>
      <point x="409" y="240" type="line"/>
      <point x="-1" y="47" type="line"/>
      <point x="32" y="237" type="line"/>
      <point x="238" y="322" type="line"/>
      <point x="62" y="408" type="line"/>
      <point x="96" y="600" type="line"/>
    </contour>
  </outline>
</glyph>
<glyph name="question" format="1">
  <advance width="500"/>
  <unicode hex="003F"/>
  <outline>
    <contour>
      <point x="524" y="585" type="curve" smooth="yes"/>
      <point x="524" y="503"/>
      <point x="489" y="453"/>
      <point x="405" y="379" type="curve" smooth="yes"/>
      <point x="334" y="316"/>
      <point x="319" y="302"/>
      <point x="319" y="269" type="curve" smooth="yes"/>
      <point x="319" y="267" type="line"/>
      <point x="119" y="267" type="line"/>
      <point x="121" y="290" type="line" smooth="yes"/>
      <point x="127" y="357"/>
      <point x="161" y="402"/>
      <point x="206" y="444" type="curve" smooth="yes"/>
      <point x="265" y="499"/>
      <point x="278" y="511"/>
      <point x="278" y="531" type="curve" smooth="yes"/>
      <point x="278" y="547"/>
      <point x="267" y="557"/>
      <point x="246" y="557" type="curve" smooth="yes"/>
      <point x="216" y="557"/>
      <point x="175" y="536"/>
      <point x="124" y="497" type="curve"/>
      <point x="51" y="668" type="line"/>
      <point x="112" y="716"/>
      <point x="218" y="741"/>
      <point x="290" y="741" type="curve" smooth="yes"/>
      <point x="423" y="741"/>
      <point x="524" y="692"/>
    </contour>
    <contour>
      <point x="325" y="204" type="line"/>
      <point x="290" y="0" type="line"/>
      <point x="54" y="0" type="line"/>
      <point x="89" y="204" type="line"/>
    </contour>
  </outline>
</glyph>
<glyph name="A" format="1">
  <advance width="780"/>
  <unicode hex="0041"/>
  <outline>
    <contour>
      <point x="711" y="0" type="line"/>
      <point x="466" y="0" type="line"/>
      <point x="450" y="133" type="line"/>
      <point x="236" y="133" type="line"/>
      <point x="174" y="0" type="line"/>
      <point x="-59" y="0" type="line"/>
      <point x="323" y="730" type="line"/>
      <point x="587" y="730" type="line"/>
    </contour>
    <contour>
      <point x="429" y="309" type="line"/>
      <point x="407" y="494" type="line"/>
      <point x="319" y="309" type="line"/>
    </contour>
  </outline>
</glyph>
<glyph name="B" format="1">
  <advance width="690"/>
  <unicode hex="0042"/>
  <outline>
    <contour>
      <point x="665" y="562" type="curve" smooth="yes"/>
      <point x="665" y="467"/>
      <point x="604" y="406"/>
      <point x="525" y="378" type="curve"/>
      <point x="574" y="370"/>
      <point x="645" y="335"/>
      <point x="645" y="233" type="curve" smooth="yes"/>
      <point x="645" y="89"/>
      <point x="530" y="0"/>
      <point x="338" y="0" type="curve" smooth="yes"/>
      <point x="-5" y="0" type="line"/>
      <point x="124" y="730" type="line"/>
      <point x="443" y="730" type="line" smooth="yes"/>
      <point x="580" y="730"/>
      <point x="665" y="669"/>
    </contour>
    <contour>
      <point x="450" y="518" type="curve" smooth="yes"/>
      <point x="450" y="556"/>
      <point x="416" y="567"/>
      <point x="360" y="567" type="curve" smooth="yes"/>
      <point x="323" y="567" type="line"/>
      <point x="299" y="431" type="line"/>
      <point x="336" y="431" type="line" smooth="yes"/>
      <point x="410" y="431"/>
      <point x="450" y="465"/>
    </contour>
    <contour>
      <point x="432" y="247" type="curve" smooth="yes"/>
      <point x="432" y="283"/>
      <point x="404" y="299"/>
      <point x="350" y="299" type="curve" smooth="yes"/>
      <point x="276" y="299" type="line"/>
      <point x="252" y="163" type="line"/>
      <point x="326" y="163" type="line" smooth="yes"/>
      <point x="403" y="163"/>
      <point x="432" y="202"/>
    </contour>
  </outline>
</glyph>
<glyph name="C" format="1">
  <advance width="708"/>
  <unicode hex="0043"/>
  <outline>
    <contour>
      <point x="718" y="621" type="curve"/>
      <point x="572" y="466" type="line"/>
      <point x="559" y="486"/>
      <point x="516" y="541"/>
      <point x="431" y="541" type="curve" smooth="yes"/>
      <point x="331" y="541"/>
      <point x="263" y="444"/>
      <point x="263" y="337" type="curve" smooth="yes"/>
      <point x="263" y="246"/>
      <point x="316" y="187"/>
      <point x="409" y="187" type="curve" smooth="yes"/>
      <point x="458" y="187"/>
      <point x="503" y="208"/>
      <point x="548" y="240" type="curve"/>
      <point x="637" y="74" type="line"/>
      <point x="563" y="22"/>
      <point x="485" y="-11"/>
      <point x="375" y="-11" type="curve" smooth="yes"/>
      <point x="154" y="-11"/>
      <point x="20" y="124"/>
      <point x="20" y="318" type="curve" smooth="yes"/>
      <point x="20" y="543"/>
      <point x="199" y="743"/>
      <point x="451" y="743" type="curve" smooth="yes"/>
      <point x="586" y="743"/>
      <point x="669" y="680"/>
    </contour>
  </outline>
</glyph>
<glyph name="D" format="1">
  <advance width="774"/>
  <unicode hex="0044"/>
  <outline>
    <contour>
      <point x="753" y="438" type="curve" smooth="yes"/>
      <point x="753" y="155"/>
      <point x="538" y="0"/>
      <point x="268" y="0" type="curve" smooth="yes"/>
      <point x="-5" y="0" type="line"/>
      <point x="124" y="730" type="line"/>
      <point x="396" y="730" type="line" smooth="yes"/>
      <point x="608" y="730"/>
      <point x="753" y="632"/>
    </contour>
    <contour>
      <point x="509" y="409" type="curve" smooth="yes"/>
      <point x="509" y="497"/>
      <point x="452" y="539"/>
      <point x="362" y="539" type="curve" smooth="yes"/>
      <point x="324" y="539" type="line"/>
      <point x="263" y="191" type="line"/>
      <point x="290" y="191" type="line" smooth="yes"/>
      <point x="415" y="191"/>
      <point x="509" y="283"/>
    </contour>
  </outline>
</glyph>
<glyph name="E" format="1">
  <advance width="560"/>
  <unicode hex="0045"/>
  <outline>
    <contour>
      <point x="570" y="730" type="line"/>
      <point x="537" y="546" type="line"/>
      <point x="325" y="546" type="line"/>
      <point x="309" y="455" type="line"/>
      <point x="487" y="455" type="line"/>
      <point x="455" y="273" type="line"/>
      <point x="277" y="273" type="line"/>
      <point x="261" y="184" type="line"/>
      <point x="483" y="184" type="line"/>
      <point x="451" y="0" type="line"/>
      <point x="-5" y="0" type="line"/>
      <point x="124" y="730" type="line"/>
    </contour>
  </outline>
</glyph>
<glyph name="F" format="1">
  <advance width="531"/>
  <unicode hex="0046"/>
  <outline>
    <contour>
      <point x="553" y="730" type="line"/>
      <point x="520" y="544" type="line"/>
      <point x="325" y="544" type="line"/>
      <point x="307" y="441" type="line"/>
      <point x="487" y="441" type="line"/>
      <point x="454" y="257" type="line"/>
      <point x="274" y="257" type="line"/>
      <point x="229" y="0" type="line"/>
      <point x="-5" y="0" type="line"/>
      <point x="124" y="730" type="line"/>
    </contour>
  </outline>
</glyph>
<glyph name="G" format="1">
  <advance width="813"/>
  <unicode hex="0047"/>
  <outline>
    <contour>
      <point x="799" y="424" type="line"/>
      <point x="780" y="151"/>
      <point x="637" y="-11"/>
      <point x="374" y="-11" type="curve" smooth="yes"/>
      <point x="157" y="-11"/>
      <point x="20" y="127"/>
      <point x="20" y="319" type="curve" smooth="yes"/>
      <point x="20" y="562"/>
      <point x="217" y="742"/>
      <point x="453" y="742" type="curve" smooth="yes"/>
      <point x="619" y="742"/>
      <point x="695" y="680"/>
      <point x="744" y="609" type="curve"/>
      <point x="573" y="471" type="line"/>
      <point x="557" y="497"/>
      <point x="515" y="541"/>
      <point x="435" y="541" type="curve" smooth="yes"/>
      <point x="318" y="541"/>
      <point x="263" y="425"/>
      <point x="263" y="328" type="curve" smooth="yes"/>
      <point x="263" y="229"/>
      <point x="314" y="167"/>
      <point x="401" y="167" type="curve" smooth="yes"/>
      <point x="463" y="167"/>
      <point x="511" y="200"/>
      <point x="534" y="243" type="curve"/>
      <point x="376" y="243" type="line"/>
      <point x="408" y="424" type="line"/>
    </contour>
  </outline>
</glyph>
<glyph name="H" format="1">
  <advance width="790"/>
  <unicode hex="0048"/>
  <outline>
    <contour>
      <point x="796" y="730" type="line"/>
      <point x="667" y="0" type="line"/>
      <point x="423" y="0" type="line"/>
      <point x="468" y="255" type="line"/>
      <point x="284" y="255" type="line"/>
      <point x="239" y="0" type="line"/>
      <point x="-5" y="0" type="line"/>
      <point x="124" y="730" type="line"/>
      <point x="368" y="730" type="line"/>
      <point x="320" y="461" type="line"/>
      <point x="504" y="461" type="line"/>
      <point x="552" y="730" type="line"/>
    </contour>
  </outline>
</glyph>
<glyph name="I" format="1">
  <advance width="366"/>
  <unicode hex="0049"/>
  <outline>
    <contour>
      <point x="370" y="730" type="line"/>
      <point x="241" y="0" type="line"/>
      <point x="-3" y="0" type="line"/>
      <point x="126" y="730" type="line"/>
    </contour>
  </outline>
</glyph>
<glyph name="J" format="1">
  <advance width="488"/>
  <unicode hex="004A"/>
  <outline>
    <contour>
      <point x="500" y="730" type="line"/>
      <point x="422" y="289" type="line" smooth="yes"/>
      <point x="382" y="64"/>
      <point x="259" y="0"/>
      <point x="56" y="0" type="curve" smooth="yes"/>
      <point x="-40" y="0" type="line"/>
      <point x="-7" y="190" type="line"/>
      <point x="40" y="190" type="line" smooth="yes"/>
      <point x="127" y="190"/>
      <point x="167" y="228"/>
      <point x="184" y="326" type="curve" smooth="yes"/>
      <point x="256" y="730" type="line"/>
    </contour>
  </outline>
</glyph>
<glyph name="K" format="1">
  <advance width="762"/>
  <unicode hex="004B"/>
  <outline>
    <contour>
      <point x="815" y="730" type="line"/>
      <point x="516" y="436" type="line"/>
      <point x="699" y="0" type="line"/>
      <point x="419" y="0" type="line"/>
      <point x="317" y="265" type="line"/>
      <point x="279" y="228" type="line"/>
      <point x="239" y="0" type="line"/>
      <point x="-5" y="0" type="line"/>
      <point x="124" y="730" type="line"/>
      <point x="368" y="730" type="line"/>
      <point x="330" y="517" type="line"/>
      <point x="530" y="730" type="line"/>
    </contour>
  </outline>
</glyph>
<glyph name="L" format="1">
  <advance width="561"/>
  <unicode hex="004C"/>
  <outline>
    <contour>
      <point x="501" y="186" type="line"/>
      <point x="468" y="0" type="line"/>
      <point x="-5" y="0" type="line"/>
      <point x="124" y="730" type="line"/>
      <point x="358" y="730" type="line"/>
      <point x="262" y="186" type="line"/>
    </contour>
  </outline>
</glyph>
<glyph name="M" format="1">
  <advance width="932"/>
  <unicode hex="004D"/>
  <outline>
    <contour>
      <point x="938" y="730" type="line"/>
      <point x="809" y="0" type="line"/>
      <point x="565" y="0" type="line"/>
      <point x="628" y="356" type="line"/>
      <point x="477" y="144" type="line"/>
      <point x="366" y="144" type="line"/>
      <point x="288" y="356" type="line"/>
      <point x="225" y="0" type="line"/>
      <point x="-5" y="0" type="line"/>
      <point x="124" y="730" type="line"/>
      <point x="361" y="730" type="line"/>
      <point x="475" y="439" type="line"/>
      <point x="681" y="730" type="line"/>
    </contour>
  </outline>
</glyph>
<glyph name="N" format="1">
  <advance width="810"/>
  <unicode hex="004E"/>
  <outline>
    <contour>
      <point x="816" y="730" type="line"/>
      <point x="687" y="0" type="line"/>
      <point x="498" y="0" type="line"/>
      <point x="284" y="337" type="line"/>
      <point x="225" y="0" type="line"/>
      <point x="-5" y="0" type="line"/>
      <point x="124" y="730" type="line"/>
      <point x="333" y="730" type="line"/>
      <point x="531" y="417" type="line"/>
      <point x="586" y="730" type="line"/>
    </contour>
  </outline>
</glyph>
<glyph name="O" format="1">
  <advance width="844"/>
  <unicode hex="004F"/>
  <outline>
    <contour>
      <point x="822" y="407" type="curve" smooth="yes"/>
      <point x="822" y="177"/>
      <point x="646" y="-11"/>
      <point x="393" y="-11" type="curve" smooth="yes"/>
      <point x="181" y="-11"/>
      <point x="23" y="115"/>
      <point x="23" y="327" type="curve" smooth="yes"/>
      <point x="23" y="546"/>
      <point x="195" y="741"/>
      <point x="459" y="741" type="curve" smooth="yes"/>
      <point x="683" y="741"/>
      <point x="822" y="593"/>
    </contour>
    <contour>
      <point x="580" y="392" type="curve" smooth="yes"/>
      <point x="580" y="485"/>
      <point x="528" y="548"/>
      <point x="437" y="548" type="curve" smooth="yes"/>
      <point x="338" y="548"/>
      <point x="266" y="457"/>
      <point x="266" y="335" type="curve" smooth="yes"/>
      <point x="266" y="244"/>
      <point x="324" y="183"/>
      <point x="407" y="183" type="curve" smooth="yes"/>
      <point x="508" y="183"/>
      <point x="580" y="265"/>
    </contour>
  </outline>
</glyph>
<glyph name="P" format="1">
  <advance width="662"/>
  <unicode hex="0050"/>
  <outline>
    <contour>
      <point x="674" y="537" type="curve" smooth="yes"/>
      <point x="674" y="360"/>
      <point x="538" y="250"/>
      <point x="356" y="250" type="curve" smooth="yes"/>
      <point x="278" y="250" type="line"/>
      <point x="234" y="0" type="line"/>
      <point x="-5" y="0" type="line"/>
      <point x="124" y="730" type="line"/>
      <point x="440" y="730" type="line" smooth="yes"/>
      <point x="590" y="730"/>
      <point x="674" y="658"/>
    </contour>
    <contour>
      <point x="446" y="509" type="curve" smooth="yes"/>
      <point x="446" y="543"/>
      <point x="422" y="556"/>
      <point x="378" y="556" type="curve" smooth="yes"/>
      <point x="330" y="556" type="line"/>
      <point x="307" y="428" type="line"/>
      <point x="355" y="428" type="line" smooth="yes"/>
      <point x="407" y="428"/>
      <point x="446" y="463"/>
    </contour>
  </outline>
</glyph>
<glyph name="Q" format="1">
  <advance width="844"/>
  <unicode hex="0051"/>
  <outline>
    <contour>
      <point x="822" y="405" type="curve" smooth="yes"/>
      <point x="822" y="312"/>
      <point x="788" y="224"/>
      <point x="730" y="153" type="curve"/>
      <point x="751" y="146"/>
      <point x="772" y="140"/>
      <point x="793" y="137" type="curve"/>
      <point x="676" y="-18" type="line"/>
      <point x="638" y="-9"/>
      <point x="603" y="8"/>
      <point x="571" y="29" type="curve"/>
      <point x="514" y="3"/>
      <point x="452" y="-11"/>
      <point x="386" y="-11" type="curve" smooth="yes"/>
      <point x="162" y="-11"/>
      <point x="23" y="137"/>
      <point x="23" y="323" type="curve" smooth="yes"/>
      <point x="23" y="548"/>
      <point x="199" y="741"/>
      <point x="452" y="741" type="curve" smooth="yes"/>
      <point x="664" y="741"/>
      <point x="822" y="614"/>
    </contour>
    <contour>
      <point x="580" y="396" type="curve" smooth="yes"/>
      <point x="580" y="488"/>
      <point x="520" y="548"/>
      <point x="442" y="548" type="curve" smooth="yes"/>
      <point x="333" y="548"/>
      <point x="266" y="449"/>
      <point x="266" y="339" type="curve" smooth="yes"/>
      <point x="266" y="243"/>
      <point x="323" y="179"/>
      <point x="406" y="179" type="curve" smooth="yes"/>
      <point x="413" y="179"/>
      <point x="420" y="179"/>
      <point x="426" y="180" type="curve"/>
      <point x="414" y="200"/>
      <point x="406" y="217"/>
      <point x="402" y="230" type="curve"/>
      <point x="533" y="329" type="line"/>
      <point x="537" y="314"/>
      <point x="546" y="298"/>
      <point x="557" y="281" type="curve"/>
      <point x="572" y="313"/>
      <point x="580" y="352"/>
    </contour>
  </outline>
</glyph>
<glyph name="R" format="1">
  <advance width="682"/>
  <unicode hex="0052"/>
  <outline>
    <contour>
      <point x="670" y="546" type="curve" smooth="yes"/>
      <point x="670" y="429"/>
      <point x="592" y="337"/>
      <point x="505" y="302" type="curve"/>
      <point x="626" y="0" type="line"/>
      <point x="365" y="0" type="line"/>
      <point x="277" y="259" type="line"/>
      <point x="231" y="0" type="line"/>
      <point x="-5" y="0" type="line"/>
      <point x="124" y="730" type="line"/>
      <point x="429" y="730" type="line" smooth="yes"/>
      <point x="580" y="730"/>
      <point x="670" y="659"/>
    </contour>
    <contour>
      <point x="441" y="509" type="curve" smooth="yes"/>
      <point x="441" y="543"/>
      <point x="414" y="556"/>
      <point x="366" y="556" type="curve" smooth="yes"/>
      <point x="327" y="556" type="line"/>
      <point x="302" y="412" type="line"/>
      <point x="341" y="412" type="line" smooth="yes"/>
      <point x="404" y="412"/>
      <point x="441" y="453"/>
    </contour>
  </outline>
</glyph>
<glyph name="S" format="1">
  <advance width="624"/>
  <unicode hex="0053"/>
  <outline>
    <contour>
      <point x="637" y="671" type="curve"/>
      <point x="513" y="510" type="line"/>
      <point x="472" y="544"/>
      <point x="406" y="563"/>
      <point x="364" y="563" type="curve" smooth="yes"/>
      <point x="320" y="563"/>
      <point x="301" y="542"/>
      <point x="301" y="521" type="curve" smooth="yes"/>
      <point x="301" y="496"/>
      <point x="324" y="481"/>
      <point x="404" y="453" type="curve" smooth="yes"/>
      <point x="508" y="417"/>
      <point x="573" y="362"/>
      <point x="573" y="256" type="curve" smooth="yes"/>
      <point x="573" y="98"/>
      <point x="451" y="-12"/>
      <point x="266" y="-12" type="curve" smooth="yes"/>
      <point x="150" y="-12"/>
      <point x="35" y="19"/>
      <point x="-33" y="87" type="curve"/>
      <point x="91" y="243" type="line"/>
      <point x="152" y="187"/>
      <point x="224" y="166"/>
      <point x="276" y="166" type="curve" smooth="yes"/>
      <point x="318" y="166"/>
      <point x="335" y="186"/>
      <point x="335" y="210" type="curve" smooth="yes"/>
      <point x="335" y="239"/>
      <point x="310" y="256"/>
      <point x="234" y="283" type="curve" smooth="yes"/>
      <point x="132" y="320"/>
      <point x="65" y="376"/>
      <point x="65" y="481" type="curve" smooth="yes"/>
      <point x="65" y="638"/>
      <point x="194" y="741"/>
      <point x="386" y="741" type="curve" smooth="yes"/>
      <point x="485" y="741"/>
      <point x="579" y="716"/>
    </contour>
  </outline>
</glyph>
<glyph name="T" format="1">
  <advance width="566"/>
  <unicode hex="0054"/>
  <outline>
    <contour>
      <point x="610" y="730" type="line"/>
      <point x="577" y="544" type="line"/>
      <point x="432" y="544" type="line"/>
      <point x="336" y="0" type="line"/>
      <point x="102" y="0" type="line"/>
      <point x="198" y="544" type="line"/>
      <point x="53" y="544" type="line"/>
      <point x="86" y="730" type="line"/>
    </contour>
  </outline>
</glyph>
<glyph name="U" format="1">
  <advance width="812"/>
  <unicode hex="0055"/>
  <outline>
    <contour>
      <point x="825" y="730" type="line"/>
      <point x="755" y="336" type="line" smooth="yes"/>
      <point x="714" y="104"/>
      <point x="575" y="-12"/>
      <point x="365" y="-12" type="curve" smooth="yes"/>
      <point x="155" y="-12"/>
      <point x="2" y="84"/>
      <point x="47" y="336" type="curve" smooth="yes"/>
      <point x="117" y="730" type="line"/>
      <point x="361" y="730" type="line"/>
      <point x="287" y="311" type="line" smooth="yes"/>
      <point x="273" y="230"/>
      <point x="307" y="182"/>
      <point x="379" y="182" type="curve" smooth="yes"/>
      <point x="445" y="182"/>
      <point x="493" y="229"/>
      <point x="507" y="311" type="curve" smooth="yes"/>
      <point x="581" y="730" type="line"/>
    </contour>
  </outline>
</glyph>
<glyph name="V" format="1">
  <advance width="730"/>
  <unicode hex="0056"/>
  <outline>
    <contour>
      <point x="790" y="730" type="line"/>
      <point x="423" y="0" type="line"/>
      <point x="179" y="0" type="line"/>
      <point x="70" y="730" type="line"/>
      <point x="320" y="730" type="line"/>
      <point x="356" y="276" type="line"/>
      <point x="552" y="730" type="line"/>
    </contour>
  </outline>
</glyph>
<glyph name="W" format="1">
  <advance width="1024"/>
  <unicode hex="0057"/>
  <outline>
    <contour>
      <point x="1082" y="730" type="line"/>
      <point x="771" y="0" type="line"/>
      <point x="528" y="0" type="line"/>
      <point x="518" y="398" type="line"/>
      <point x="368" y="0" type="line"/>
      <point x="125" y="0" type="line"/>
      <point x="72" y="730" type="line"/>
      <point x="335" y="730" type="line"/>
      <point x="326" y="338" type="line"/>
      <point x="468" y="730" type="line"/>
      <point x="706" y="730" type="line"/>
      <point x="710" y="338" type="line"/>
      <point x="839" y="730" type="line"/>
    </contour>
  </outline>
</glyph>
<glyph name="X" format="1">
  <advance width="745"/>
  <unicode hex="0058"/>
  <outline>
    <contour>
      <point x="778" y="730" type="line"/>
      <point x="521" y="391" type="line"/>
      <point x="675" y="0" type="line"/>
      <point x="408" y="0" type="line"/>
      <point x="340" y="186" type="line"/>
      <point x="204" y="0" type="line"/>
      <point x="-58" y="0" type="line"/>
      <point x="231" y="381" type="line"/>
      <point x="97" y="730" type="line"/>
      <point x="364" y="730" type="line"/>
      <point x="413" y="588" type="line"/>
      <point x="516" y="730" type="line"/>
    </contour>
  </outline>
</glyph>
<glyph name="Y" format="1">
  <advance width="724"/>
  <unicode hex="0059"/>
  <outline>
    <contour>
      <point x="792" y="730" type="line"/>
      <point x="463" y="273" type="line"/>
      <point x="415" y="0" type="line"/>
      <point x="181" y="0" type="line"/>
      <point x="229" y="273" type="line"/>
      <point x="62" y="730" type="line"/>
      <point x="321" y="730" type="line"/>
      <point x="390" y="493" type="line"/>
      <point x="543" y="730" type="line"/>
    </contour>
  </outline>
</glyph>
<glyph name="Z" format="1">
  <advance width="702"/>
  <unicode hex="005A"/>
  <outline>
    <contour>
      <point x="725" y="730" type="line"/>
      <point x="339" y="181" type="line"/>
      <point x="625" y="181" type="line"/>
      <point x="593" y="0" type="line"/>
      <point x="-42" y="0" type="line"/>
      <point x="344" y="549" type="line"/>
      <point x="91" y="549" type="line"/>
      <point x="123" y="730" type="line"/>
    </contour>
  </outline>
</glyph>
<glyph name="bracketleft" format="1">
  <advance width="470"/>
  <unicode hex="005B"/>
  <outline>
    <contour>
      <point x="499" y="730" type="line"/>
      <point x="474" y="590" type="line"/>
      <point x="346" y="590" type="line"/>
      <point x="235" y="-39" type="line"/>
      <point x="363" y="-39" type="line"/>
      <point x="338" y="-179" type="line"/>
      <point x="-15" y="-179" type="line"/>
      <point x="145" y="730" type="line"/>
    </contour>
  </outline>
</glyph>
<glyph name="backslash" format="1">
  <advance width="450"/>
  <unicode hex="005C"/>
  <outline>
    <contour>
      <point x="390" y="0" type="line"/>
      <point x="172" y="0" type="line"/>
      <point x="46" y="730" type="line"/>
      <point x="267" y="730" type="line"/>
    </contour>
  </outline>
</glyph>
<glyph name="bracketright" format="1">
  <advance width="470"/>
  <unicode hex="005D"/>
  <outline>
    <contour>
      <point x="469" y="730" type="line"/>
      <point x="309" y="-179" type="line"/>
      <point x="-45" y="-179" type="line"/>
      <point x="-20" y="-39" type="line"/>
      <point x="108" y="-39" type="line"/>
      <point x="219" y="590" type="line"/>
      <point x="91" y="590" type="line"/>
      <point x="115" y="730" type="line"/>
    </contour>
  </outline>
</glyph>
<glyph name="asciicircum" format="1">
  <advance width="674"/>
  <unicode hex="005E"/>
  <outline>
    <contour>
      <point x="650" y="370" type="line"/>
      <point x="439" y="370" type="line"/>
      <point x="370" y="547" type="line"/>
      <point x="237" y="370" type="line"/>
      <point x="26" y="370" type="line"/>
      <point x="296" y="730" type="line"/>
      <point x="508" y="730" type="line"/>
    </contour>
  </outline>
</glyph>
<glyph name="underscore" format="1">
  <advance width="500"/>
  <unicode hex="005F"/>
  <outline>
    <contour>
      <point x="437" y="-173" type="line"/>
      <point x="-69" y="-173" type="line"/>
      <point x="-69" y="-63" type="line"/>
      <point x="437" y="-63" type="line"/>
    </contour>
  </outline>
</glyph>
<glyph name="grave" format="1">
  <advance width="500"/>
  <unicode hex="0060"/>
  <outline>
    <contour>
      <point x="362" y="498" type="line"/>
      <point x="226" y="498" type="line"/>
      <point x="163" y="675" type="line"/>
      <point x="328" y="675" type="line"/>
    </contour>
  </outline>
</glyph>
<glyph name="a" format="1">
  <advance width="570"/>
  <unicode hex="0061"/>
  <outline>
    <contour>
      <point x="523" y="284" type="curve" smooth="yes"/>
      <point x="473" y="0" type="line"/>
      <point x="251" y="0" type="line"/>
      <point x="258" y="41" type="line"/>
      <point x="220" y="13"/>
      <point x="179" y="-6"/>
      <point x="120" y="-6" type="curve" smooth="yes"/>
      <point x="37" y="-6"/>
      <point x="-22" y="31"/>
      <point x="-22" y="104" type="curve" smooth="yes"/>
      <point x="-22" y="225"/>
      <point x="109" y="288"/>
      <point x="302" y="289" type="curve"/>
      <point x="303" y="295" type="line" smooth="yes"/>
      <point x="308" y="323"/>
      <point x="289" y="334"/>
      <point x="237" y="334" type="curve" smooth="yes"/>
      <point x="195" y="334"/>
      <point x="143" y="322"/>
      <point x="99" y="301" type="curve"/>
      <point x="70" y="415" type="line"/>
      <point x="136" y="444"/>
      <point x="201" y="465"/>
      <point x="303" y="465" type="curve" smooth="yes"/>
      <point x="466" y="465"/>
      <point x="547" y="421"/>
    </contour>
    <contour>
      <point x="289" y="200" type="line"/>
      <point x="218" y="200"/>
      <point x="187" y="175"/>
      <point x="187" y="141" type="curve" smooth="yes"/>
      <point x="187" y="121"/>
      <point x="203" y="109"/>
      <point x="228" y="109" type="curve" smooth="yes"/>
      <point x="246" y="109"/>
      <point x="264" y="118"/>
      <point x="277" y="129" type="curve"/>
    </contour>
  </outline>
</glyph>
<glyph name="b" format="1">
  <advance width="625"/>
  <unicode hex="0062"/>
  <outline>
    <contour>
      <point x="590" y="276" type="curve" smooth="yes"/>
      <point x="590" y="134"/>
      <point x="492" y="-8"/>
      <point x="343" y="-8" type="curve" smooth="yes"/>
      <point x="285" y="-8"/>
      <point x="244" y="11"/>
      <point x="214" y="47" type="curve"/>
      <point x="206" y="0" type="line"/>
      <point x="-18" y="0" type="line"/>
      <point x="111" y="730" type="line"/>
      <point x="335" y="730" type="line"/>
      <point x="279" y="414" type="line"/>
      <point x="317" y="447"/>
      <point x="361" y="469"/>
      <point x="413" y="469" type="curve" smooth="yes"/>
      <point x="523" y="469"/>
      <point x="590" y="386"/>
    </contour>
    <contour>
      <point x="380" y="244" type="curve" smooth="yes"/>
      <point x="380" y="290"/>
      <point x="357" y="312"/>
      <point x="322" y="312" type="curve" smooth="yes"/>
      <point x="279" y="312"/>
      <point x="250" y="278"/>
      <point x="239" y="186" type="curve"/>
      <point x="247" y="171"/>
      <point x="265" y="151"/>
      <point x="299" y="151" type="curve" smooth="yes"/>
      <point x="347" y="151"/>
      <point x="380" y="198"/>
    </contour>
  </outline>
</glyph>
<glyph name="c" format="1">
  <advance width="486"/>
  <unicode hex="0063"/>
  <outline>
    <contour>
      <point x="474" y="399" type="curve"/>
      <point x="339" y="281" type="line"/>
      <point x="328" y="296"/>
      <point x="308" y="310"/>
      <point x="281" y="310" type="curve" smooth="yes"/>
      <point x="229" y="310"/>
      <point x="200" y="261"/>
      <point x="200" y="217" type="curve" smooth="yes"/>
      <point x="200" y="174"/>
      <point x="222" y="150"/>
      <point x="257" y="150" type="curve" smooth="yes"/>
      <point x="285" y="150"/>
      <point x="305" y="162"/>
      <point x="326" y="185" type="curve"/>
      <point x="436" y="83" type="line"/>
      <point x="390" y="33"/>
      <point x="313" y="-12"/>
      <point x="234" y="-12" type="curve" smooth="yes"/>
      <point x="103" y="-12"/>
      <point x="-4" y="64"/>
      <point x="-4" y="197" type="curve" smooth="yes"/>
      <point x="-4" y="382"/>
      <point x="146" y="473"/>
      <point x="284" y="473" type="curve" smooth="yes"/>
      <point x="360" y="473"/>
      <point x="432" y="447"/>
    </contour>
  </outline>
</glyph>
<glyph name="d" format="1">
  <advance width="625"/>
  <unicode hex="0064"/>
  <outline>
    <contour>
      <point x="652" y="730" type="line"/>
      <point x="523" y="0" type="line"/>
      <point x="299" y="0" type="line"/>
      <point x="307" y="47" type="line"/>
      <point x="269" y="15"/>
      <point x="227" y="-8"/>
      <point x="177" y="-8" type="curve" smooth="yes"/>
      <point x="61" y="-8"/>
      <point x="-4" y="76"/>
      <point x="-4" y="187" type="curve" smooth="yes"/>
      <point x="-4" y="319"/>
      <point x="100" y="469"/>
      <point x="241" y="469" type="curve" smooth="yes"/>
      <point x="299" y="469"/>
      <point x="342" y="450"/>
      <point x="372" y="414" type="curve"/>
      <point x="428" y="730" type="line"/>
    </contour>
    <contour>
      <point x="350" y="276" type="curve"/>
      <point x="342" y="291"/>
      <point x="324" y="311"/>
      <point x="290" y="311" type="curve" smooth="yes"/>
      <point x="242" y="311"/>
      <point x="206" y="264"/>
      <point x="206" y="218" type="curve" smooth="yes"/>
      <point x="206" y="175"/>
      <point x="231" y="150"/>
      <point x="267" y="150" type="curve" smooth="yes"/>
      <point x="310" y="150"/>
      <point x="339" y="181"/>
    </contour>
  </outline>
</glyph>
<glyph name="e" format="1">
  <advance width="540"/>
  <unicode hex="0065"/>
  <outline>
    <contour>
      <point x="492" y="188" type="curve"/>
      <point x="188" y="188" type="line"/>
      <point x="195" y="137"/>
      <point x="225" y="119"/>
      <point x="279" y="119" type="curve" smooth="yes"/>
      <point x="328" y="119"/>
      <point x="371" y="130"/>
      <point x="420" y="159" type="curve"/>
      <point x="473" y="53" type="line"/>
      <point x="407" y="9"/>
      <point x="337" y="-12"/>
      <point x="247" y="-12" type="curve" smooth="yes"/>
      <point x="84" y="-12"/>
      <point x="-4" y="66"/>
      <point x="-4" y="191" type="curve" smooth="yes"/>
      <point x="-4" y="337"/>
      <point x="112" y="473"/>
      <point x="276" y="473" type="curve" smooth="yes"/>
      <point x="412" y="473"/>
      <point x="499" y="403"/>
      <point x="499" y="260" type="curve" smooth="yes"/>
      <point x="499" y="238"/>
      <point x="497" y="214"/>
    </contour>
    <contour>
      <point x="315" y="279" type="line"/>
      <point x="325" y="330"/>
      <point x="301" y="356"/>
      <point x="265" y="356" type="curve" smooth="yes"/>
      <point x="235" y="356"/>
      <point x="206" y="336"/>
      <point x="194" y="279" type="curve"/>
    </contour>
  </outline>
</glyph>
<glyph name="f" format="1">
  <advance width="360"/>
  <unicode hex="0066"/>
  <outline>
    <contour>
      <point x="409" y="730" type="line"/>
      <point x="381" y="574" type="line"/>
      <point x="363" y="574" type="line" smooth="yes"/>
      <point x="333" y="574"/>
      <point x="321" y="552"/>
      <point x="315" y="521" type="curve" smooth="yes"/>
      <point x="304" y="461" type="line"/>
      <point x="366" y="461" type="line"/>
      <point x="340" y="312" type="line"/>
      <point x="278" y="312" type="line"/>
      <point x="192" y="-179" type="line"/>
      <point x="-29" y="-179" type="line"/>
      <point x="57" y="312" type="line"/>
      <point x="10" y="312" type="line"/>
      <point x="36" y="461" type="line"/>
      <point x="83" y="461" type="line"/>
      <point x="102" y="569" type="line" smooth="yes"/>
      <point x="119" y="665"/>
      <point x="183" y="730"/>
      <point x="283" y="730" type="curve" smooth="yes"/>
    </contour>
  </outline>
</glyph>
<glyph name="g" format="1">
  <advance width="625"/>
  <unicode hex="0067"/>
  <outline>
    <contour>
      <point x="604" y="461" type="line"/>
      <point x="531" y="44" type="line" smooth="yes"/>
      <point x="506" y="-100"/>
      <point x="421" y="-183"/>
      <point x="244" y="-183" type="curve" smooth="yes"/>
      <point x="140" y="-183"/>
      <point x="39" y="-159"/>
      <point x="-28" y="-126" type="curve"/>
      <point x="48" y="4" type="line"/>
      <point x="96" y="-21"/>
      <point x="150" y="-39"/>
      <point x="215" y="-39" type="curve" smooth="yes"/>
      <point x="272" y="-39"/>
      <point x="296" y="-11"/>
      <point x="304" y="30" type="curve" smooth="yes"/>
      <point x="311" y="68" type="line"/>
      <point x="277" y="37"/>
      <point x="232" y="15"/>
      <point x="179" y="15" type="curve" smooth="yes"/>
      <point x="67" y="15"/>
      <point x="-1" y="91"/>
      <point x="-1" y="200" type="curve" smooth="yes"/>
      <point x="-1" y="338"/>
      <point x="102" y="469"/>
      <point x="242" y="469" type="curve" smooth="yes"/>
      <point x="300" y="469"/>
      <point x="342" y="451"/>
      <point x="373" y="417" type="curve"/>
      <point x="380" y="461" type="line"/>
    </contour>
    <contour>
      <point x="351" y="288" type="curve"/>
      <point x="343" y="303"/>
      <point x="325" y="323"/>
      <point x="291" y="323" type="curve" smooth="yes"/>
      <point x="243" y="323"/>
      <point x="208" y="278"/>
      <point x="208" y="230" type="curve" smooth="yes"/>
      <point x="208" y="187"/>
      <point x="232" y="166"/>
      <point x="267" y="166" type="curve" smooth="yes"/>
      <point x="313" y="166"/>
      <point x="340" y="194"/>
    </contour>
  </outline>
</glyph>
<glyph name="i" format="1">
  <advance width="312"/>
  <unicode hex="0069"/>
  <outline>
    <contour>
      <point x="333" y="695" type="line"/>
      <point x="303" y="525" type="line"/>
      <point x="75" y="525" type="line"/>
      <point x="105" y="695" type="line"/>
    </contour>
    <contour>
      <point x="289" y="461" type="line"/>
      <point x="208" y="0" type="line"/>
      <point x="-16" y="0" type="line"/>
      <point x="65" y="461" type="line"/>
    </contour>
  </outline>
</glyph>
<glyph name="j" format="1">
  <advance width="312"/>
  <unicode hex="006A"/>
  <outline>
    <contour>
      <point x="332" y="695" type="line"/>
      <point x="303" y="525" type="line"/>
      <point x="75" y="525" type="line"/>
      <point x="104" y="695" type="line"/>
    </contour>
    <contour>
      <point x="289" y="461" type="line"/>
      <point x="205" y="-18" type="line" smooth="yes"/>
      <point x="188" y="-114"/>
      <point x="124" y="-179"/>
      <point x="24" y="-179" type="curve" smooth="yes"/>
      <point x="-112" y="-179" type="line"/>
      <point x="-84" y="-23" type="line"/>
      <point x="-58" y="-23" type="line" smooth="yes"/>
      <point x="-28" y="-23"/>
      <point x="-17" y="-2"/>
      <point x="-11" y="30" type="curve" smooth="yes"/>
      <point x="65" y="461" type="line"/>
    </contour>
  </outline>
</glyph>
<glyph name="k" format="1">
  <advance width="600"/>
  <unicode hex="006B"/>
  <outline>
    <contour>
      <point x="615" y="461" type="line"/>
      <point x="447" y="276" type="line"/>
      <point x="530" y="0" type="line"/>
      <point x="294" y="0" type="line"/>
      <point x="262" y="117" type="line"/>
      <point x="219" y="74" type="line"/>
      <point x="206" y="0" type="line"/>
      <point x="-18" y="0" type="line"/>
      <point x="111" y="730" type="line"/>
      <point x="335" y="730" type="line"/>
      <point x="261" y="311" type="line"/>
      <point x="390" y="461" type="line"/>
    </contour>
  </outline>
</glyph>
<glyph name="l" format="1">
  <advance width="312"/>
  <unicode hex="006C"/>
  <outline>
    <contour>
      <point x="337" y="730" type="line"/>
      <point x="208" y="0" type="line"/>
      <point x="-16" y="0" type="line"/>
      <point x="113" y="730" type="line"/>
    </contour>
  </outline>
</glyph>
<glyph name="m" format="1">
  <advance width="900"/>
  <unicode hex="006D"/>
  <outline>
    <contour>
      <point x="855" y="293" type="curve" smooth="yes"/>
      <point x="803" y="0" type="line"/>
      <point x="582" y="0" type="line"/>
      <point x="624" y="241" type="line" smooth="yes"/>
      <point x="630" y="276"/>
      <point x="627" y="296"/>
      <point x="595" y="296" type="curve" smooth="yes"/>
      <point x="576" y="296"/>
      <point x="552" y="276"/>
      <point x="546" y="244" type="curve" smooth="yes"/>
      <point x="503" y="0" type="line"/>
      <point x="282" y="0" type="line"/>
      <point x="324" y="241" type="line" smooth="yes"/>
      <point x="330" y="276"/>
      <point x="327" y="296"/>
      <point x="296" y="296" type="curve" smooth="yes"/>
      <point x="275" y="296"/>
      <point x="252" y="276"/>
      <point x="246" y="244" type="curve" smooth="yes"/>
      <point x="203" y="0" type="line"/>
      <point x="-18" y="0" type="line"/>
      <point x="63" y="461" type="line"/>
      <point x="284" y="461" type="line"/>
      <point x="276" y="412" type="line"/>
      <point x="314" y="449"/>
      <point x="361" y="473"/>
      <point x="415" y="473" type="curve" smooth="yes"/>
      <point x="483" y="473"/>
      <point x="524" y="447"/>
      <point x="544" y="405" type="curve"/>
      <point x="597" y="450"/>
      <point x="647" y="473"/>
      <point x="706" y="473" type="curve" smooth="yes"/>
      <point x="829" y="473"/>
      <point x="874" y="400"/>
    </contour>
  </outline>
</glyph>
<glyph name="n" format="1">
  <advance width="610"/>
  <unicode hex="006E"/>
  <outline>
    <contour>
      <point x="565" y="293" type="curve" smooth="yes"/>
      <point x="513" y="0" type="line"/>
      <point x="289" y="0" type="line"/>
      <point x="331" y="239" type="line" smooth="yes"/>
      <point x="337" y="276"/>
      <point x="330" y="295"/>
      <point x="299" y="295" type="curve" smooth="yes"/>
      <point x="274" y="295"/>
      <point x="254" y="270"/>
      <point x="249" y="242" type="curve" smooth="yes"/>
      <point x="206" y="0" type="line"/>
      <point x="-18" y="0" type="line"/>
      <point x="63" y="461" type="line"/>
      <point x="287" y="461" type="line"/>
      <point x="279" y="412" type="line"/>
      <point x="315" y="447"/>
      <point x="362" y="473"/>
      <point x="415" y="473" type="curve" smooth="yes"/>
      <point x="541" y="473"/>
      <point x="583" y="397"/>
    </contour>
  </outline>
</glyph>
<glyph name="o" format="1">
  <advance width="570"/>
  <unicode hex="006F"/>
  <outline>
    <contour>
      <point x="535" y="269" type="curve" smooth="yes"/>
      <point x="535" y="103"/>
      <point x="389" y="-12"/>
      <point x="235" y="-12" type="curve" smooth="yes"/>
      <point x="98" y="-12"/>
      <point x="-4" y="65"/>
      <point x="-4" y="197" type="curve" smooth="yes"/>
      <point x="-4" y="354"/>
      <point x="143" y="473"/>
      <point x="297" y="473" type="curve" smooth="yes"/>
      <point x="431" y="473"/>
      <point x="535" y="393"/>
    </contour>
    <contour>
      <point x="336" y="246" type="curve" smooth="yes"/>
      <point x="336" y="286"/>
      <point x="315" y="314"/>
      <point x="277" y="314" type="curve" smooth="yes"/>
      <point x="231" y="314"/>
      <point x="195" y="260"/>
      <point x="195" y="212" type="curve" smooth="yes"/>
      <point x="195" y="174"/>
      <point x="215" y="145"/>
      <point x="254" y="145" type="curve" smooth="yes"/>
      <point x="293" y="145"/>
      <point x="336" y="191"/>
    </contour>
  </outline>
</glyph>
<glyph name="p" format="1">
  <advance width="625"/>
  <unicode hex="0070"/>
  <outline>
    <contour>
      <point x="590" y="274" type="curve" smooth="yes"/>
      <point x="590" y="138"/>
      <point x="494" y="-8"/>
      <point x="344" y="-8" type="curve" smooth="yes"/>
      <point x="286" y="-8"/>
      <point x="244" y="11"/>
      <point x="214" y="47" type="curve"/>
      <point x="174" y="-179" type="line"/>
      <point x="-50" y="-179" type="line"/>
      <point x="63" y="461" type="line"/>
      <point x="287" y="461" type="line"/>
      <point x="279" y="414" type="line"/>
      <point x="317" y="446"/>
      <point x="361" y="469"/>
      <point x="412" y="469" type="curve" smooth="yes"/>
      <point x="524" y="469"/>
      <point x="590" y="386"/>
    </contour>
    <contour>
      <point x="380" y="244" type="curve" smooth="yes"/>
      <point x="380" y="290"/>
      <point x="357" y="312"/>
      <point x="322" y="312" type="curve" smooth="yes"/>
      <point x="279" y="312"/>
      <point x="246" y="268"/>
      <point x="239" y="186" type="curve"/>
      <point x="247" y="171"/>
      <point x="265" y="151"/>
      <point x="299" y="151" type="curve" smooth="yes"/>
      <point x="347" y="151"/>
      <point x="380" y="198"/>
    </contour>
  </outline>
</glyph>
<glyph name="q" format="1">
  <advance width="625"/>
  <unicode hex="0071"/>
  <outline>
    <contour>
      <point x="604" y="461" type="line"/>
      <point x="491" y="-179" type="line"/>
      <point x="267" y="-179" type="line"/>
      <point x="307" y="47" type="line"/>
      <point x="270" y="15"/>
      <point x="223" y="-8"/>
      <point x="178" y="-8" type="curve" smooth="yes"/>
      <point x="61" y="-8"/>
      <point x="-4" y="76"/>
      <point x="-4" y="187" type="curve" smooth="yes"/>
      <point x="-4" y="323"/>
      <point x="101" y="469"/>
      <point x="242" y="469" type="curve" smooth="yes"/>
      <point x="305" y="469"/>
      <point x="344" y="448"/>
      <point x="372" y="414" type="curve"/>
      <point x="380" y="461" type="line"/>
    </contour>
    <contour>
      <point x="353" y="276" type="curve"/>
      <point x="345" y="291"/>
      <point x="327" y="311"/>
      <point x="293" y="311" type="curve" smooth="yes"/>
      <point x="245" y="311"/>
      <point x="209" y="265"/>
      <point x="209" y="218" type="curve" smooth="yes"/>
      <point x="209" y="175"/>
      <point x="231" y="150"/>
      <point x="266" y="150" type="curve" smooth="yes"/>
      <point x="312" y="150"/>
      <point x="343" y="180"/>
    </contour>
  </outline>
</glyph>
<glyph name="r" format="1">
  <advance width="508"/>
  <unicode hex="0072"/>
  <outline>
    <contour>
      <point x="518" y="428" type="curve"/>
      <point x="388" y="236" type="line"/>
      <point x="365" y="257"/>
      <point x="348" y="263"/>
      <point x="322" y="263" type="curve" smooth="yes"/>
      <point x="281" y="263"/>
      <point x="245" y="222"/>
      <point x="237" y="177" type="curve" smooth="yes"/>
      <point x="206" y="0" type="line"/>
      <point x="-18" y="0" type="line"/>
      <point x="63" y="461" type="line"/>
      <point x="287" y="461" type="line"/>
      <point x="277" y="404" type="line"/>
      <point x="308" y="440"/>
      <point x="354" y="473"/>
      <point x="408" y="473" type="curve" smooth="yes"/>
      <point x="454" y="473"/>
      <point x="492" y="458"/>
    </contour>
  </outline>
</glyph>
<glyph name="s" format="1">
  <advance width="458"/>
  <unicode hex="0073"/>
  <outline>
    <contour>
      <point x="444" y="423" type="curve"/>
      <point x="376" y="310" type="line"/>
      <point x="335" y="332"/>
      <point x="286" y="347"/>
      <point x="242" y="347" type="curve" smooth="yes"/>
      <point x="207" y="347"/>
      <point x="201" y="340"/>
      <point x="201" y="331" type="curve" smooth="yes"/>
      <point x="201" y="318"/>
      <point x="206" y="317"/>
      <point x="277" y="299" type="curve" smooth="yes"/>
      <point x="366" y="276"/>
      <point x="411" y="235"/>
      <point x="411" y="170" type="curve" smooth="yes"/>
      <point x="411" y="57"/>
      <point x="320" y="-9"/>
      <point x="180" y="-9" type="curve" smooth="yes"/>
      <point x="81" y="-9"/>
      <point x="12" y="10"/>
      <point x="-42" y="42" type="curve"/>
      <point x="27" y="156" type="line"/>
      <point x="86" y="124"/>
      <point x="129" y="111"/>
      <point x="198" y="111" type="curve" smooth="yes"/>
      <point x="221" y="111"/>
      <point x="229" y="120"/>
      <point x="229" y="128" type="curve" smooth="yes"/>
      <point x="229" y="140"/>
      <point x="216" y="143"/>
      <point x="153" y="159" type="curve" smooth="yes"/>
      <point x="72" y="180"/>
      <point x="19" y="214"/>
      <point x="19" y="293" type="curve" smooth="yes"/>
      <point x="19" y="399"/>
      <point x="117" y="470"/>
      <point x="245" y="470" type="curve" smooth="yes"/>
      <point x="330" y="470"/>
      <point x="386" y="454"/>
    </contour>
  </outline>
</glyph>
<glyph name="t" format="1">
  <advance width="400"/>
  <unicode hex="0074"/>
  <outline>
    <contour>
      <point x="382" y="461" type="line"/>
      <point x="356" y="312" type="line"/>
      <point x="283" y="312" type="line"/>
      <point x="265" y="216" type="line" smooth="yes"/>
      <point x="257" y="171"/>
      <point x="258" y="156"/>
      <point x="296" y="156" type="curve" smooth="yes"/>
      <point x="338" y="156" type="line"/>
      <point x="285" y="0" type="line"/>
      <point x="192" y="0" type="line" smooth="yes"/>
      <point x="39" y="0"/>
      <point x="20" y="83"/>
      <point x="40" y="191" type="curve" smooth="yes"/>
      <point x="62" y="312" type="line"/>
      <point x="8" y="312" type="line"/>
      <point x="34" y="461" type="line"/>
      <point x="88" y="461" type="line"/>
      <point x="117" y="613" type="line"/>
      <point x="341" y="640" type="line"/>
      <point x="309" y="461" type="line"/>
    </contour>
  </outline>
</glyph>
<glyph name="u" format="1">
  <advance width="610"/>
  <unicode hex="0075"/>
  <outline>
    <contour>
      <point x="589" y="461" type="line"/>
      <point x="508" y="0" type="line"/>
      <point x="284" y="0" type="line"/>
      <point x="293" y="49" type="line"/>
      <point x="255" y="13"/>
      <point x="206" y="-12"/>
      <point x="153" y="-12" type="curve" smooth="yes"/>
      <point x="29" y="-12"/>
      <point x="-11" y="65"/>
      <point x="7" y="168" type="curve" smooth="yes"/>
      <point x="58" y="461" type="line"/>
      <point x="282" y="461" type="line"/>
      <point x="240" y="222" type="line" smooth="yes"/>
      <point x="234" y="185"/>
      <point x="240" y="165"/>
      <point x="272" y="165" type="curve" smooth="yes"/>
      <point x="291" y="165"/>
      <point x="317" y="187"/>
      <point x="323" y="219" type="curve" smooth="yes"/>
      <point x="365" y="461" type="line"/>
    </contour>
  </outline>
</glyph>
<glyph name="v" format="1">
  <advance width="604"/>
  <unicode hex="0076"/>
  <outline>
    <contour>
      <point x="623" y="461" type="line"/>
      <point x="361" y="0" type="line"/>
      <point x="123" y="0" type="line"/>
      <point x="23" y="461" type="line"/>
      <point x="267" y="461" type="line"/>
      <point x="287" y="226" type="line"/>
      <point x="389" y="461" type="line"/>
    </contour>
  </outline>
</glyph>
<glyph name="w" format="1">
  <advance width="866"/>
  <unicode hex="0077"/>
  <outline>
    <contour>
      <point x="883" y="461" type="line"/>
      <point x="650" y="0" type="line"/>
      <point x="435" y="0" type="line"/>
      <point x="397" y="138" type="line"/>
      <point x="311" y="0" type="line"/>
      <point x="96" y="0" type="line"/>
      <point x="25" y="461" type="line"/>
      <point x="264" y="461" type="line"/>
      <point x="286" y="238" type="line"/>
      <point x="464" y="488" type="line"/>
      <point x="554" y="238" type="line"/>
      <point x="654" y="461" type="line"/>
    </contour>
  </outline>
</glyph>
<glyph name="x" format="1">
  <advance width="562"/>
  <unicode hex="0078"/>
  <outline>
    <contour>
      <point x="567" y="461" type="line"/>
      <point x="388" y="241" type="line"/>
      <point x="496" y="0" type="line"/>
      <point x="268" y="0" type="line"/>
      <point x="234" y="92" type="line"/>
      <point x="166" y="0" type="line"/>
      <point x="-54" y="0" type="line"/>
      <point x="136" y="235" type="line"/>
      <point x="37" y="461" type="line"/>
      <point x="265" y="461" type="line"/>
      <point x="291" y="386" type="line"/>
      <point x="347" y="461" type="line"/>
    </contour>
  </outline>
</glyph>
<glyph name="y" format="1">
  <advance width="604"/>
  <unicode hex="0079"/>
  <outline>
    <contour>
      <point x="132" y="-3" type="curve"/>
      <point x="23" y="461" type="line"/>
      <point x="267" y="461" type="line"/>
      <point x="287" y="218" type="line"/>
      <point x="389" y="461" type="line"/>
      <point x="623" y="461" type="line"/>
      <point x="336" y="-44" type="line" smooth="yes"/>
      <point x="283" y="-137"/>
      <point x="213" y="-179"/>
      <point x="104" y="-179" type="curve" smooth="yes"/>
      <point x="-3" y="-179" type="line"/>
      <point x="25" y="-23" type="line"/>
      <point x="61" y="-23" type="line" smooth="yes"/>
      <point x="100" y="-23"/>
      <point x="121" y="-15"/>
    </contour>
  </outline>
</glyph>
<glyph name="z" format="1">
  <advance width="541"/>
  <unicode hex="007A"/>
  <outline>
    <contour>
      <point x="556" y="461" type="line"/>
      <point x="302" y="159" type="line"/>
      <point x="486" y="159" type="line"/>
      <point x="458" y="0" type="line"/>
      <point x="-60" y="0" type="line"/>
      <point x="194" y="302" type="line"/>
      <point x="27" y="302" type="line"/>
      <point x="55" y="461" type="line"/>
    </contour>
  </outline>
</glyph>
<glyph name="braceleft" format="1">
  <advance width="411"/>
  <unicode hex="007B"/>
  <outline>
    <contour>
      <point x="457" y="736" type="curve"/>
      <point x="424" y="552" type="line"/>
      <point x="377" y="542"/>
      <point x="364" y="525"/>
      <point x="358" y="490" type="curve" smooth="yes"/>
      <point x="338" y="375"/>
      <point x="317" y="332"/>
      <point x="210" y="288" type="curve"/>
      <point x="302" y="244"/>
      <point x="303" y="207"/>
      <point x="280" y="78" type="curve" smooth="yes"/>
      <point x="274" y="43"/>
      <point x="282" y="16"/>
      <point x="328" y="4" type="curve"/>
      <point x="295" y="-180" type="line"/>
      <point x="136" y="-177"/>
      <point x="32" y="-42"/>
      <point x="55" y="89" type="curve" smooth="yes"/>
      <point x="69" y="171"/>
      <point x="68" y="203"/>
      <point x="-6" y="217" type="curve"/>
      <point x="24" y="375" type="line"/>
      <point x="102" y="389"/>
      <point x="108" y="394"/>
      <point x="143" y="530" type="curve" smooth="yes"/>
      <point x="183" y="686"/>
      <point x="293" y="733"/>
    </contour>
  </outline>
</glyph>
<glyph name="bar" format="1">
  <advance width="342"/>
  <unicode hex="007C"/>
  <outline>
    <contour>
      <point x="343" y="730" type="line"/>
      <point x="183" y="-179" type="line"/>
      <point x="-29" y="-179" type="line"/>
      <point x="131" y="730" type="line"/>
    </contour>
  </outline>
</glyph>
<glyph name="braceright" format="1">
  <advance width="411"/>
  <unicode hex="007D"/>
  <outline>
    <contour>
      <point x="386" y="338" type="curve"/>
      <point x="356" y="180" type="line"/>
      <point x="278" y="166"/>
      <point x="274" y="166"/>
      <point x="239" y="30" type="curve" smooth="yes"/>
      <point x="199" y="-126"/>
      <point x="89" y="-173"/>
      <point x="-75" y="-176" type="curve"/>
      <point x="-42" y="8" type="line"/>
      <point x="3" y="16"/>
      <point x="18" y="35"/>
      <point x="24" y="70" type="curve" smooth="yes"/>
      <point x="44" y="185"/>
      <point x="64" y="228"/>
      <point x="171" y="272" type="curve"/>
      <point x="79" y="316"/>
      <point x="80" y="348"/>
      <point x="103" y="477" type="curve" smooth="yes"/>
      <point x="109" y="512"/>
      <point x="99" y="545"/>
      <point x="54" y="556" type="curve"/>
      <point x="87" y="740" type="line"/>
      <point x="246" y="737"/>
      <point x="348" y="597"/>
      <point x="325" y="466" type="curve" smooth="yes"/>
      <point x="311" y="384"/>
      <point x="312" y="352"/>
    </contour>
  </outline>
</glyph>
<glyph name="asciitilde" format="1">
  <advance width="610"/>
  <unicode hex="007E"/>
  <outline>
    <contour>
      <point x="602" y="499" type="line"/>
      <point x="597" y="348"/>
      <point x="529" y="232"/>
      <point x="423" y="232" type="curve" smooth="yes"/>
      <point x="373" y="232"/>
      <point x="348" y="243"/>
      <point x="310" y="267" type="curve" smooth="yes"/>
      <point x="264" y="296"/>
      <point x="251" y="309"/>
      <point x="222" y="309" type="curve" smooth="yes"/>
      <point x="195" y="309"/>
      <point x="185" y="278"/>
      <point x="184" y="235" type="curve"/>
      <point x="9" y="235" type="line"/>
      <point x="20" y="391"/>
      <point x="80" y="501"/>
      <point x="202" y="501" type="curve" smooth="yes"/>
      <point x="254" y="501"/>
      <point x="285" y="484"/>
      <point x="322" y="463" type="curve" smooth="yes"/>
      <point x="355" y="444"/>
      <point x="372" y="430"/>
      <point x="396" y="430" type="curve" smooth="yes"/>
      <point x="422" y="430"/>
      <point x="429" y="446"/>
      <point x="427" y="499" type="curve"/>
    </contour>
  </outline>
</glyph>
<glyph name="exclamdown" format="1">
  <advance width="366"/>
  <unicode hex="00A1"/>
  <outline>
    <contour>
      <point x="365" y="730" type="line"/>
      <point x="329" y="526" type="line"/>
      <point x="93" y="526" type="line"/>
      <point x="129" y="730" type="line"/>
    </contour>
    <contour>
      <point x="282" y="463" type="line"/>
      <point x="273" y="207" type="line"/>
      <point x="237" y="0" type="line"/>
      <point x="1" y="0" type="line"/>
      <point x="37" y="207" type="line"/>
      <point x="119" y="463" type="line"/>
    </contour>
  </outline>
</glyph>
<glyph name="cent" format="1">
  <advance width="500"/>
  <unicode hex="00A2"/>
  <outline>
    <contour>
      <point x="483" y="399" type="curve"/>
      <point x="359" y="291" type="line"/>
      <point x="349" y="304"/>
      <point x="334" y="318"/>
      <point x="313" y="324" type="curve"/>
      <point x="281" y="136" type="line"/>
      <point x="305" y="141"/>
      <point x="322" y="153"/>
      <point x="344" y="175" type="curve"/>
      <point x="445" y="83" type="line"/>
      <point x="400" y="38"/>
      <point x="335" y="-4"/>
      <point x="264" y="-11" type="curve"/>
      <point x="252" y="-79" type="line"/>
      <point x="174" y="-79" type="line"/>
      <point x="187" y="-7" type="line"/>
      <point x="83" y="11"/>
      <point x="5" y="83"/>
      <point x="5" y="197" type="curve" smooth="yes"/>
      <point x="5" y="336"/>
      <point x="123" y="456"/>
      <point x="271" y="471" type="curve"/>
      <point x="280" y="525" type="line"/>
      <point x="358" y="525" type="line"/>
      <point x="349" y="470" type="line"/>
      <point x="420" y="461"/>
      <point x="458" y="429"/>
    </contour>
    <contour>
      <point x="256" y="321" type="line"/>
      <point x="211" y="305"/>
      <point x="183" y="259"/>
      <point x="183" y="210" type="curve" smooth="yes"/>
      <point x="183" y="177"/>
      <point x="199" y="152"/>
      <point x="224" y="141" type="curve"/>
    </contour>
  </outline>
</glyph>
<glyph name="sterling" format="1">
  <advance width="846"/>
  <unicode hex="00A3"/>
  <outline>
    <contour>
      <point x="791" y="493" type="curve"/>
      <point x="565" y="493" type="line"/>
      <point x="577" y="560"/>
      <point x="545" y="597"/>
      <point x="473" y="597" type="curve" smooth="yes"/>
      <point x="414" y="597"/>
      <point x="378" y="568"/>
      <point x="378" y="511" type="curve" smooth="yes"/>
      <point x="378" y="500"/>
      <point x="382" y="488"/>
      <point x="390" y="473" type="curve"/>
      <point x="614" y="473" type="line"/>
      <point x="606" y="425" type="line"/>
      <point x="425" y="425" type="line"/>
      <point x="437" y="411"/>
      <point x="452" y="394"/>
      <point x="463" y="378" type="curve"/>
      <point x="598" y="378" type="line"/>
      <point x="589" y="330" type="line"/>
      <point x="486" y="330" type="line"/>
      <point x="490" y="315"/>
      <point x="493" y="300"/>
      <point x="493" y="286" type="curve" smooth="yes"/>
      <point x="493" y="262"/>
      <point x="487" y="239"/>
      <point x="478" y="219" type="curve"/>
      <point x="508" y="205"/>
      <point x="532" y="188"/>
      <point x="562" y="188" type="curve" smooth="yes"/>
      <point x="594" y="188"/>
      <point x="615" y="207"/>
      <point x="620" y="257" type="curve"/>
      <point x="620" y="257"/>
      <point x="767" y="257"/>
      <point x="791" y="257" type="curve"/>
      <point x="772" y="71"/>
      <point x="709" y="-12"/>
      <point x="591" y="-12" type="curve" smooth="yes"/>
      <point x="490" y="-12"/>
      <point x="449" y="40"/>
      <point x="406" y="75" type="curve"/>
      <point x="353" y="23"/>
      <point x="292" y="-12"/>
      <point x="191" y="-12" type="curve" smooth="yes"/>
      <point x="71" y="-12"/>
      <point x="19" y="61"/>
      <point x="19" y="131" type="curve" smooth="yes"/>
      <point x="19" y="234"/>
      <point x="106" y="283"/>
      <point x="202" y="283" type="curve" smooth="yes"/>
      <point x="234" y="283"/>
      <point x="260" y="278"/>
      <point x="296" y="265" type="curve"/>
      <point x="292" y="276"/>
      <point x="286" y="288"/>
      <point x="279" y="299" type="curve" smooth="yes"/>
      <point x="272" y="309"/>
      <point x="265" y="319"/>
      <point x="256" y="330" type="curve"/>
      <point x="74" y="330" type="line"/>
      <point x="83" y="378" type="line"/>
      <point x="212" y="378" type="line"/>
      <point x="199" y="393"/>
      <point x="186" y="408"/>
      <point x="175" y="425" type="curve"/>
      <point x="91" y="425" type="line"/>
      <point x="99" y="473" type="line"/>
      <point x="153" y="473" type="line"/>
      <point x="149" y="486"/>
      <point x="147" y="500"/>
      <point x="147" y="515" type="curve" smooth="yes"/>
      <point x="147" y="622"/>
      <point x="240" y="742"/>
      <point x="482" y="742" type="curve" smooth="yes"/>
      <point x="678" y="742"/>
      <point x="813" y="665"/>
    </contour>
    <contour>
      <point x="297" y="159" type="curve"/>
      <point x="276" y="179"/>
      <point x="253" y="191"/>
      <point x="214" y="191" type="curve" smooth="yes"/>
      <point x="169" y="191"/>
      <point x="141" y="172"/>
      <point x="141" y="142" type="curve" smooth="yes"/>
      <point x="141" y="116"/>
      <point x="161" y="96"/>
      <point x="204" y="96" type="curve" smooth="yes"/>
      <point x="241" y="96"/>
      <point x="280" y="119"/>
    </contour>
  </outline>
</glyph>
<glyph name="yen" format="1">
  <advance width="766"/>
  <unicode hex="00A5"/>
  <outline>
    <contour>
      <point x="437" y="0" type="line"/>
      <point x="211" y="0" type="line"/>
      <point x="232" y="119" type="line"/>
      <point x="110" y="119" type="line"/>
      <point x="117" y="160" type="line"/>
      <point x="239" y="160" type="line"/>
      <point x="250" y="220" type="line"/>
      <point x="128" y="220" type="line"/>
      <point x="135" y="263" type="line"/>
      <point x="250" y="263" type="line"/>
      <point x="249" y="267" type="line"/>
      <point x="93" y="730" type="line"/>
      <point x="348" y="730" type="line"/>
      <point x="394" y="501" type="line" smooth="yes"/>
      <point x="398" y="483"/>
      <point x="403" y="453"/>
      <point x="404" y="439" type="curve"/>
      <point x="410" y="453"/>
      <point x="427" y="487"/>
      <point x="435" y="501" type="curve" smooth="yes"/>
      <point x="560" y="730" type="line"/>
      <point x="819" y="730" type="line"/>
      <point x="487" y="267" type="line"/>
      <point x="485" y="263" type="line"/>
      <point x="609" y="263" type="line"/>
      <point x="602" y="220" type="line"/>
      <point x="476" y="220" type="line"/>
      <point x="465" y="160" type="line"/>
      <point x="591" y="160" type="line"/>
      <point x="584" y="119" type="line"/>
      <point x="458" y="119" type="line"/>
    </contour>
  </outline>
</glyph>
<glyph name="brokenbar" format="1">
  <advance width="342"/>
  <unicode hex="00A6"/>
  <outline>
    <contour>
      <point x="64" y="351" type="line"/>
      <point x="131" y="730" type="line"/>
      <point x="343" y="730" type="line"/>
      <point x="276" y="351" type="line"/>
    </contour>
    <contour>
      <point x="249" y="200" type="line"/>
      <point x="182" y="-179" type="line"/>
      <point x="-30" y="-179" type="line"/>
      <point x="37" y="200" type="line"/>
    </contour>
  </outline>
</glyph>
<glyph name="section" format="1">
  <advance width="641"/>
  <unicode hex="00A7"/>
  <outline>
    <contour>
      <point x="499" y="22" type="curve" smooth="yes"/>
      <point x="499" y="-97"/>
      <point x="402" y="-190"/>
      <point x="239" y="-190" type="curve" smooth="yes"/>
      <point x="133" y="-190"/>
      <point x="52" y="-162"/>
      <point x="-11" y="-107" type="curve"/>
      <point x="80" y="22" type="line"/>
      <point x="122" y="-9"/>
      <point x="175" y="-32"/>
      <point x="236" y="-32" type="curve" smooth="yes"/>
      <point x="289" y="-32"/>
      <point x="306" y="-17"/>
      <point x="306" y="-3" type="curve" smooth="yes"/>
      <point x="306" y="23"/>
      <point x="288" y="25"/>
      <point x="251" y="41" type="curve" smooth="yes"/>
      <point x="169" y="76" type="line" smooth="yes"/>
      <point x="64" y="121"/>
      <point x="20" y="167"/>
      <point x="20" y="251" type="curve" smooth="yes"/>
      <point x="20" y="341"/>
      <point x="107" y="398"/>
      <point x="147" y="418" type="curve"/>
      <point x="116" y="459"/>
      <point x="102" y="497"/>
      <point x="102" y="533" type="curve" smooth="yes"/>
      <point x="102" y="654"/>
      <point x="219" y="742"/>
      <point x="359" y="742" type="curve" smooth="yes"/>
      <point x="466" y="742"/>
      <point x="560" y="699"/>
      <point x="609" y="654" type="curve"/>
      <point x="506" y="520" type="line"/>
      <point x="454" y="559"/>
      <point x="393" y="580"/>
      <point x="345" y="580" type="curve" smooth="yes"/>
      <point x="319" y="580"/>
      <point x="299" y="572"/>
      <point x="299" y="557" type="curve" smooth="yes"/>
      <point x="299" y="544"/>
      <point x="302" y="537"/>
      <point x="340" y="521" type="curve" smooth="yes"/>
      <point x="454" y="474" type="line" smooth="yes"/>
      <point x="548" y="435"/>
      <point x="594" y="386"/>
      <point x="594" y="311" type="curve" smooth="yes"/>
      <point x="594" y="233"/>
      <point x="532" y="153"/>
      <point x="462" y="111" type="curve"/>
      <point x="479" y="94"/>
      <point x="499" y="64"/>
    </contour>
    <contour>
      <point x="404" y="261" type="curve" smooth="yes"/>
      <point x="404" y="285"/>
      <point x="388" y="301"/>
      <point x="353" y="317" type="curve" smooth="yes"/>
      <point x="253" y="362" type="line"/>
      <point x="228" y="348"/>
      <point x="203" y="327"/>
      <point x="203" y="296" type="curve" smooth="yes"/>
      <point x="203" y="265"/>
      <point x="215" y="251"/>
      <point x="262" y="231" type="curve" smooth="yes"/>
      <point x="354" y="191" type="line"/>
      <point x="385" y="207"/>
      <point x="404" y="235"/>
    </contour>
  </outline>
</glyph>
<glyph name="dieresis" format="1">
  <advance width="500"/>
  <unicode hex="00A8"/>
  <outline>
    <contour>
      <point x="508" y="647" type="line"/>
      <point x="482" y="498" type="line"/>
      <point x="315" y="498" type="line"/>
      <point x="341" y="647" type="line"/>
    </contour>
    <contour>
      <point x="259" y="647" type="line"/>
      <point x="233" y="498" type="line"/>
      <point x="66" y="498" type="line"/>
      <point x="92" y="647" type="line"/>
    </contour>
  </outline>
</glyph>
<glyph name="copyright" format="1">
  <advance width="844"/>
  <unicode hex="00A9"/>
  <outline>
    <contour>
      <point x="799" y="365" type="curve" smooth="yes"/>
      <point x="799" y="157"/>
      <point x="630" y="-12"/>
      <point x="422" y="-12" type="curve" smooth="yes"/>
      <point x="214" y="-12"/>
      <point x="45" y="157"/>
      <point x="45" y="365" type="curve" smooth="yes"/>
      <point x="45" y="573"/>
      <point x="214" y="742"/>
      <point x="422" y="742" type="curve" smooth="yes"/>
      <point x="630" y="742"/>
      <point x="799" y="573"/>
    </contour>
    <contour>
      <point x="734" y="364" type="curve" smooth="yes"/>
      <point x="734" y="544"/>
      <point x="602" y="684"/>
      <point x="422" y="684" type="curve" smooth="yes"/>
      <point x="242" y="684"/>
      <point x="110" y="544"/>
      <point x="110" y="364" type="curve" smooth="yes"/>
      <point x="110" y="184"/>
      <point x="242" y="45"/>
      <point x="422" y="45" type="curve" smooth="yes"/>
      <point x="602" y="45"/>
      <point x="734" y="184"/>
    </contour>
    <contour>
      <point x="602" y="204" type="line"/>
      <point x="560" y="167"/>
      <point x="513" y="141"/>
      <point x="436" y="141" type="curve" smooth="yes"/>
      <point x="303" y="141"/>
      <point x="208" y="235"/>
      <point x="208" y="366" type="curve" smooth="yes"/>
      <point x="208" y="497"/>
      <point x="307" y="594"/>
      <point x="439" y="594" type="curve" smooth="yes"/>
      <point x="509" y="594"/>
      <point x="556" y="564"/>
      <point x="593" y="531" type="curve"/>
      <point x="521" y="434" type="line"/>
      <point x="497" y="458"/>
      <point x="473" y="474"/>
      <point x="436" y="474" type="curve" smooth="yes"/>
      <point x="387" y="474"/>
      <point x="351" y="432"/>
      <point x="351" y="369" type="curve" smooth="yes"/>
      <point x="351" y="306"/>
      <point x="386" y="261"/>
      <point x="444" y="261" type="curve" smooth="yes"/>
      <point x="476" y="261"/>
      <point x="506" y="275"/>
      <point x="532" y="299" type="curve"/>
    </contour>
  </outline>
</glyph>
<glyph name="ordfeminine" format="1">
  <advance width="474"/>
  <unicode hex="00AA"/>
  <outline>
    <contour>
      <point x="448" y="620" type="curve" smooth="yes"/>
      <point x="408" y="400" type="line"/>
      <point x="294" y="400" type="line"/>
      <point x="297" y="423" type="line"/>
      <point x="267" y="403"/>
      <point x="236" y="391"/>
      <point x="202" y="391" type="curve" smooth="yes"/>
      <point x="123" y="391"/>
      <point x="84" y="440"/>
      <point x="84" y="494" type="curve" smooth="yes"/>
      <point x="84" y="583"/>
      <point x="175" y="624"/>
      <point x="288" y="624" type="curve" smooth="yes"/>
      <point x="335" y="624" type="line"/>
      <point x="338" y="645"/>
      <point x="322" y="654"/>
      <point x="278" y="654" type="curve" smooth="yes"/>
      <point x="236" y="654"/>
      <point x="193" y="642"/>
      <point x="170" y="633" type="curve"/>
      <point x="155" y="713" type="line"/>
      <point x="185" y="727"/>
      <point x="242" y="742"/>
      <point x="304" y="742" type="curve" smooth="yes"/>
      <point x="425" y="742"/>
      <point x="461" y="691"/>
    </contour>
    <contour>
      <point x="399" y="336" type="line"/>
      <point x="379" y="237" type="line"/>
      <point x="41" y="237" type="line"/>
      <point x="60" y="336" type="line"/>
    </contour>
    <contour>
      <point x="318" y="545" type="line"/>
      <point x="272" y="545" type="line" smooth="yes"/>
      <point x="225" y="545"/>
      <point x="199" y="532"/>
      <point x="199" y="504" type="curve" smooth="yes"/>
      <point x="199" y="491"/>
      <point x="208" y="477"/>
      <point x="233" y="477" type="curve" smooth="yes"/>
      <point x="269" y="477"/>
      <point x="289" y="487"/>
      <point x="311" y="503" type="curve"/>
    </contour>
  </outline>
</glyph>
<glyph name="guillemotleft" format="1">
  <advance width="570"/>
  <unicode hex="00AB"/>
  <outline>
    <contour>
      <point x="516" y="441" type="line"/>
      <point x="487" y="276" type="line"/>
      <point x="383" y="235" type="line"/>
      <point x="473" y="197" type="line"/>
      <point x="444" y="34" type="line"/>
      <point x="263" y="140" type="line"/>
      <point x="297" y="333" type="line"/>
    </contour>
    <contour>
      <point x="258" y="441" type="line"/>
      <point x="229" y="276" type="line"/>
      <point x="125" y="235" type="line"/>
      <point x="215" y="197" type="line"/>
      <point x="186" y="34" type="line"/>
      <point x="5" y="140" type="line"/>
      <point x="39" y="333" type="line"/>
    </contour>
  </outline>
</glyph>
<glyph name="degree" format="1">
  <advance width="436"/>
  <unicode hex="00B0"/>
  <outline>
    <contour>
      <point x="411" y="549" type="curve" smooth="yes"/>
      <point x="411" y="442"/>
      <point x="325" y="356"/>
      <point x="218" y="356" type="curve" smooth="yes"/>
      <point x="111" y="356"/>
      <point x="25" y="442"/>
      <point x="25" y="549" type="curve" smooth="yes"/>
      <point x="25" y="656"/>
      <point x="111" y="742"/>
      <point x="218" y="742" type="curve" smooth="yes"/>
      <point x="325" y="742"/>
      <point x="411" y="656"/>
    </contour>
    <contour>
      <point x="301" y="549" type="curve" smooth="yes"/>
      <point x="301" y="599"/>
      <point x="268" y="642"/>
      <point x="218" y="642" type="curve" smooth="yes"/>
      <point x="168" y="642"/>
      <point x="135" y="599"/>
      <point x="135" y="549" type="curve" smooth="yes"/>
      <point x="135" y="499"/>
      <point x="168" y="456"/>
      <point x="218" y="456" type="curve" smooth="yes"/>
      <point x="268" y="456"/>
      <point x="301" y="499"/>
    </contour>
  </outline>
</glyph>
<glyph name="twosuperior" format="1">
  <advance width="488"/>
  <unicode hex="00B2"/>
  <outline>
    <contour>
      <point x="368" y="452" type="line"/>
      <point x="442" y="452" type="line"/>
      <point x="420" y="330" type="line"/>
      <point x="52" y="330" type="line"/>
      <point x="277" y="530" type="line" smooth="yes"/>
      <point x="304" y="554"/>
      <point x="315" y="571"/>
      <point x="315" y="589" type="curve" smooth="yes"/>
      <point x="315" y="603"/>
      <point x="305" y="615"/>
      <point x="286" y="615" type="curve" smooth="yes"/>
      <point x="258" y="615"/>
      <point x="245" y="595"/>
      <point x="242" y="566" type="curve" smooth="yes"/>
      <point x="241" y="555" type="line"/>
      <point x="103" y="555" type="line"/>
      <point x="104" y="567" type="line" smooth="yes"/>
      <point x="114" y="683"/>
      <point x="202" y="741"/>
      <point x="310" y="741" type="curve" smooth="yes"/>
      <point x="431" y="741"/>
      <point x="469" y="680"/>
      <point x="469" y="621" type="curve" smooth="yes"/>
      <point x="469" y="563"/>
      <point x="444" y="524"/>
      <point x="401" y="483" type="curve" smooth="yes"/>
    </contour>
  </outline>
</glyph>
<glyph name="acute" format="1">
  <advance width="500"/>
  <unicode hex="00B4"/>
  <outline>
    <contour>
      <point x="438" y="675" type="line"/>
      <point x="313" y="498" type="line"/>
      <point x="181" y="498" type="line"/>
      <point x="277" y="675" type="line"/>
    </contour>
  </outline>
</glyph>
<glyph name="paragraph" format="1">
  <advance width="835"/>
  <unicode hex="00B6"/>
  <outline>
    <contour>
      <point x="846" y="730" type="line"/>
      <point x="686" y="-179" type="line"/>
      <point x="473" y="-179" type="line"/>
      <point x="611" y="601" type="line"/>
      <point x="547" y="601" type="line"/>
      <point x="409" y="-179" type="line"/>
      <point x="286" y="-179" type="line"/>
      <point x="354" y="207" type="line"/>
      <point x="320" y="207" type="line" smooth="yes"/>
      <point x="154" y="207"/>
      <point x="58" y="312"/>
      <point x="58" y="463" type="curve" smooth="yes"/>
      <point x="58" y="620"/>
      <point x="153" y="730"/>
      <point x="415" y="730" type="curve" smooth="yes"/>
    </contour>
    <contour>
      <point x="423" y="596" type="line"/>
      <point x="419" y="596" type="line" smooth="yes"/>
      <point x="327" y="596"/>
      <point x="286" y="533"/>
      <point x="286" y="456" type="curve" smooth="yes"/>
      <point x="286" y="389"/>
      <point x="313" y="341"/>
      <point x="370" y="341" type="curve" smooth="yes"/>
      <point x="378" y="341" type="line"/>
    </contour>
  </outline>
</glyph>
<glyph name="periodcentered" format="1">
  <advance width="300"/>
  <unicode hex="00B7"/>
  <outline>
    <contour>
      <point x="229" y="178" type="line"/>
      <point x="3" y="178" type="line"/>
      <point x="43" y="400" type="line"/>
      <point x="269" y="400" type="line"/>
    </contour>
  </outline>
</glyph>
<glyph name="cedilla" format="1">
  <advance width="500"/>
  <unicode hex="00B8"/>
  <outline>
    <contour>
      <point x="293" y="-81" type="curve" smooth="yes"/>
      <point x="293" y="-152"/>
      <point x="230" y="-199"/>
      <point x="147" y="-199" type="curve" smooth="yes"/>
      <point x="102" y="-199"/>
      <point x="57" y="-181"/>
      <point x="31" y="-160" type="curve"/>
      <point x="83" y="-93" type="line"/>
      <point x="106" y="-106"/>
      <point x="128" y="-115"/>
      <point x="154" y="-115" type="curve" smooth="yes"/>
      <point x="170" y="-115"/>
      <point x="181" y="-105"/>
      <point x="183" y="-95" type="curve" smooth="yes"/>
      <point x="185" y="-85"/>
      <point x="178" y="-75"/>
      <point x="156" y="-75" type="curve" smooth="yes"/>
      <point x="142" y="-75"/>
      <point x="126" y="-79"/>
      <point x="111" y="-88" type="curve"/>
      <point x="95" y="-33" type="line"/>
      <point x="142" y="19" type="line"/>
      <point x="234" y="19" type="line"/>
      <point x="205" y="-10" type="line"/>
      <point x="259" y="-8"/>
      <point x="293" y="-41"/>
    </contour>
  </outline>
</glyph>
<glyph name="ordmasculine" format="1">
  <advance width="499"/>
  <unicode hex="00BA"/>
  <outline>
    <contour>
      <point x="487" y="593" type="curve" smooth="yes"/>
      <point x="487" y="472"/>
      <point x="381" y="388"/>
      <point x="268" y="388" type="curve" smooth="yes"/>
      <point x="168" y="388"/>
      <point x="94" y="445"/>
      <point x="94" y="541" type="curve" smooth="yes"/>
      <point x="94" y="656"/>
      <point x="201" y="742"/>
      <point x="313" y="742" type="curve" smooth="yes"/>
      <point x="411" y="742"/>
      <point x="487" y="684"/>
    </contour>
    <contour>
      <point x="426" y="336" type="line"/>
      <point x="409" y="236" type="line"/>
      <point x="45" y="236" type="line"/>
      <point x="62" y="336" type="line"/>
    </contour>
    <contour>
      <point x="342" y="577" type="curve" smooth="yes"/>
      <point x="342" y="605"/>
      <point x="327" y="626"/>
      <point x="300" y="626" type="curve" smooth="yes"/>
      <point x="266" y="626"/>
      <point x="239" y="592"/>
      <point x="239" y="552" type="curve" smooth="yes"/>
      <point x="239" y="524"/>
      <point x="254" y="503"/>
      <point x="282" y="503" type="curve" smooth="yes"/>
      <point x="315" y="503"/>
      <point x="342" y="535"/>
    </contour>
  </outline>
</glyph>
<glyph name="guillemotright" format="1">
  <advance width="570"/>
  <unicode hex="00BB"/>
  <outline>
    <contour>
      <point x="520" y="333" type="line"/>
      <point x="486" y="140" type="line"/>
      <point x="267" y="34" type="line"/>
      <point x="296" y="197" type="line"/>
      <point x="398" y="235" type="line"/>
      <point x="310" y="276" type="line"/>
      <point x="339" y="441" type="line"/>
    </contour>
    <contour>
      <point x="262" y="333" type="line"/>
      <point x="228" y="140" type="line"/>
      <point x="9" y="34" type="line"/>
      <point x="38" y="197" type="line"/>
      <point x="140" y="235" type="line"/>
      <point x="52" y="276" type="line"/>
      <point x="81" y="441" type="line"/>
    </contour>
  </outline>
</glyph>
<glyph name="onequarter" format="1">
  <advance width="1021"/>
  <unicode hex="00BC"/>
  <outline>
    <contour>
      <point x="280" y="325" type="line"/>
      <point x="115" y="325" type="line"/>
      <point x="158" y="566" type="line"/>
      <point x="137" y="551"/>
      <point x="109" y="544"/>
      <point x="78" y="542" type="curve"/>
      <point x="98" y="657" type="line"/>
      <point x="141" y="662"/>
      <point x="174" y="676"/>
      <point x="208" y="730" type="curve"/>
      <point x="352" y="730" type="line"/>
    </contour>
    <contour>
      <point x="902" y="730" type="line"/>
      <point x="276" y="0" type="line"/>
      <point x="71" y="0" type="line"/>
      <point x="697" y="730" type="line"/>
    </contour>
    <contour>
      <point x="938" y="76" type="line"/>
      <point x="886" y="76" type="line"/>
      <point x="873" y="0" type="line"/>
      <point x="723" y="0" type="line"/>
      <point x="736" y="76" type="line"/>
      <point x="535" y="76" type="line"/>
      <point x="553" y="173" type="line"/>
      <point x="764" y="400" type="line"/>
      <point x="944" y="400" type="line"/>
      <point x="905" y="184" type="line"/>
      <point x="957" y="184" type="line"/>
    </contour>
    <contour>
      <point x="683" y="186" type="line"/>
      <point x="756" y="186" type="line"/>
      <point x="772" y="279" type="line"/>
    </contour>
  </outline>
</glyph>
<glyph name="onehalf" format="1">
  <advance width="1009"/>
  <unicode hex="00BD"/>
  <outline>
    <contour>
      <point x="280" y="325" type="line"/>
      <point x="115" y="325" type="line"/>
      <point x="158" y="566" type="line"/>
      <point x="137" y="551"/>
      <point x="109" y="544"/>
      <point x="78" y="542" type="curve"/>
      <point x="98" y="657" type="line"/>
      <point x="141" y="662"/>
      <point x="174" y="676"/>
      <point x="208" y="730" type="curve"/>
      <point x="352" y="730" type="line"/>
    </contour>
    <contour>
      <point x="897" y="730" type="line"/>
      <point x="271" y="0" type="line"/>
      <point x="66" y="0" type="line"/>
      <point x="692" y="730" type="line"/>
    </contour>
    <contour>
      <point x="844" y="122" type="line"/>
      <point x="918" y="122" type="line"/>
      <point x="896" y="0" type="line"/>
      <point x="528" y="0" type="line"/>
      <point x="753" y="200" type="line" smooth="yes"/>
      <point x="780" y="224"/>
      <point x="791" y="241"/>
      <point x="791" y="259" type="curve" smooth="yes"/>
      <point x="791" y="273"/>
      <point x="781" y="285"/>
      <point x="762" y="285" type="curve" smooth="yes"/>
      <point x="734" y="285"/>
      <point x="721" y="265"/>
      <point x="718" y="236" type="curve" smooth="yes"/>
      <point x="717" y="225" type="line"/>
      <point x="579" y="225" type="line"/>
      <point x="580" y="237" type="line" smooth="yes"/>
      <point x="590" y="353"/>
      <point x="678" y="411"/>
      <point x="786" y="411" type="curve" smooth="yes"/>
      <point x="907" y="411"/>
      <point x="945" y="350"/>
      <point x="945" y="291" type="curve" smooth="yes"/>
      <point x="945" y="233"/>
      <point x="920" y="194"/>
      <point x="877" y="153" type="curve" smooth="yes"/>
    </contour>
  </outline>
</glyph>
<glyph name="threequarters" format="1">
  <advance width="1079"/>
  <unicode hex="00BE"/>
  <outline>
    <contour>
      <point x="439" y="626" type="curve" smooth="yes"/>
      <point x="439" y="574"/>
      <point x="403" y="548"/>
      <point x="377" y="536" type="curve"/>
      <point x="403" y="522"/>
      <point x="420" y="500"/>
      <point x="420" y="467" type="curve" smooth="yes"/>
      <point x="420" y="398"/>
      <point x="356" y="323"/>
      <point x="242" y="323" type="curve" smooth="yes"/>
      <point x="149" y="323"/>
      <point x="116" y="337"/>
      <point x="75" y="366" type="curve"/>
      <point x="152" y="465" type="line"/>
      <point x="173" y="445"/>
      <point x="208" y="433"/>
      <point x="238" y="433" type="curve" smooth="yes"/>
      <point x="263" y="433"/>
      <point x="275" y="447"/>
      <point x="275" y="467" type="curve" smooth="yes"/>
      <point x="275" y="484"/>
      <point x="260" y="496"/>
      <point x="231" y="496" type="curve" smooth="yes"/>
      <point x="210" y="496" type="line"/>
      <point x="224" y="574" type="line"/>
      <point x="245" y="574" type="line" smooth="yes"/>
      <point x="271" y="574"/>
      <point x="290" y="584"/>
      <point x="290" y="605" type="curve" smooth="yes"/>
      <point x="290" y="620"/>
      <point x="274" y="629"/>
      <point x="256" y="629" type="curve" smooth="yes"/>
      <point x="240" y="629"/>
      <point x="209" y="620"/>
      <point x="193" y="599" type="curve"/>
      <point x="122" y="683" type="line"/>
      <point x="143" y="706"/>
      <point x="201" y="739"/>
      <point x="279" y="739" type="curve" smooth="yes"/>
      <point x="381" y="739"/>
      <point x="439" y="685"/>
    </contour>
    <contour>
      <point x="970" y="730" type="line"/>
      <point x="344" y="0" type="line"/>
      <point x="139" y="0" type="line"/>
      <point x="765" y="730" type="line"/>
    </contour>
    <contour>
      <point x="996" y="76" type="line"/>
      <point x="944" y="76" type="line"/>
      <point x="931" y="0" type="line"/>
      <point x="781" y="0" type="line"/>
      <point x="794" y="76" type="line"/>
      <point x="593" y="76" type="line"/>
      <point x="611" y="173" type="line"/>
      <point x="822" y="400" type="line"/>
      <point x="1002" y="400" type="line"/>
      <point x="963" y="184" type="line"/>
      <point x="1015" y="184" type="line"/>
    </contour>
    <contour>
      <point x="741" y="186" type="line"/>
      <point x="814" y="186" type="line"/>
      <point x="830" y="279" type="line"/>
    </contour>
  </outline>
</glyph>
<glyph name="questiondown" format="1">
  <advance width="500"/>
  <unicode hex="00BF"/>
  <outline>
    <contour>
      <point x="440" y="729" type="line"/>
      <point x="405" y="525" type="line"/>
      <point x="169" y="525" type="line"/>
      <point x="204" y="729" type="line"/>
    </contour>
    <contour>
      <point x="443" y="61" type="line"/>
      <point x="382" y="13"/>
      <point x="276" y="-12"/>
      <point x="204" y="-12" type="curve" smooth="yes"/>
      <point x="71" y="-12"/>
      <point x="-30" y="37"/>
      <point x="-30" y="144" type="curve" smooth="yes"/>
      <point x="-30" y="226"/>
      <point x="5" y="276"/>
      <point x="89" y="350" type="curve" smooth="yes"/>
      <point x="160" y="413"/>
      <point x="175" y="427"/>
      <point x="175" y="460" type="curve" smooth="yes"/>
      <point x="175" y="462" type="line"/>
      <point x="375" y="462" type="line"/>
      <point x="373" y="439" type="line" smooth="yes"/>
      <point x="367" y="372"/>
      <point x="336" y="330"/>
      <point x="288" y="285" type="curve" smooth="yes"/>
      <point x="229" y="230"/>
      <point x="216" y="218"/>
      <point x="216" y="198" type="curve" smooth="yes"/>
      <point x="216" y="182"/>
      <point x="227" y="172"/>
      <point x="248" y="172" type="curve" smooth="yes"/>
      <point x="278" y="172"/>
      <point x="319" y="193"/>
      <point x="370" y="232" type="curve"/>
    </contour>
  </outline>
</glyph>
<glyph name="Adieresis" format="1">
  <advance width="780"/>
  <unicode hex="00C4"/>
  <outline>
    <contour>
      <point x="826" y="730" type="line"/>
      <point x="800" y="581" type="line"/>
      <point x="633" y="581" type="line"/>
      <point x="659" y="730" type="line"/>
    </contour>
    <contour>
      <point x="242" y="730" type="line"/>
      <point x="216" y="581" type="line"/>
      <point x="49" y="581" type="line"/>
      <point x="75" y="730" type="line"/>
    </contour>
    <contour>
      <point x="711" y="0" type="line"/>
      <point x="466" y="0" type="line"/>
      <point x="450" y="133" type="line"/>
      <point x="236" y="133" type="line"/>
      <point x="174" y="0" type="line"/>
      <point x="-59" y="0" type="line"/>
      <point x="323" y="730" type="line"/>
      <point x="587" y="730" type="line"/>
    </contour>
    <contour>
      <point x="429" y="309" type="line"/>
      <point x="408" y="485" type="line"/>
      <point x="407" y="494" type="line"/>
      <point x="403" y="485" type="line"/>
      <point x="319" y="309" type="line"/>
    </contour>
  </outline>
</glyph>
<glyph name="Aring" format="1">
  <advance width="780"/>
  <unicode hex="00C5"/>
  <outline>
    <contour>
      <point x="711" y="0" type="line"/>
      <point x="466" y="0" type="line"/>
      <point x="450" y="133" type="line"/>
      <point x="236" y="133" type="line"/>
      <point x="174" y="0" type="line"/>
      <point x="-59" y="0" type="line"/>
      <point x="335" y="730" type="line"/>
      <point x="313" y="755"/>
      <point x="305" y="788"/>
      <point x="305" y="824" type="curve" smooth="yes"/>
      <point x="305" y="904"/>
      <point x="370" y="969"/>
      <point x="450" y="969" type="curve" smooth="yes"/>
      <point x="530" y="969"/>
      <point x="595" y="904"/>
      <point x="595" y="824" type="curve" smooth="yes"/>
      <point x="595" y="788"/>
      <point x="582" y="755"/>
      <point x="560" y="730" type="curve"/>
    </contour>
    <contour>
      <point x="499" y="824" type="curve" smooth="yes"/>
      <point x="499" y="852"/>
      <point x="478" y="874"/>
      <point x="450" y="874" type="curve" smooth="yes"/>
      <point x="422" y="874"/>
      <point x="401" y="852"/>
      <point x="401" y="824" type="curve" smooth="yes"/>
      <point x="401" y="797"/>
      <point x="422" y="774"/>
      <point x="450" y="774" type="curve" smooth="yes"/>
      <point x="478" y="774"/>
      <point x="499" y="797"/>
    </contour>
    <contour>
      <point x="429" y="309" type="line"/>
      <point x="407" y="494" type="line"/>
      <point x="319" y="309" type="line"/>
    </contour>
  </outline>
</glyph>
<glyph name="AE" format="1">
  <advance width="976"/>
  <unicode hex="00C6"/>
  <outline>
    <contour>
      <point x="986" y="730" type="line"/>
      <point x="953" y="546" type="line"/>
      <point x="740" y="546" type="line"/>
      <point x="724" y="455" type="line"/>
      <point x="903" y="455" type="line"/>
      <point x="871" y="273" type="line"/>
      <point x="691" y="273" type="line"/>
      <point x="675" y="184" type="line"/>
      <point x="899" y="184" type="line"/>
      <point x="867" y="0" type="line"/>
      <point x="415" y="0" type="line"/>
      <point x="439" y="134" type="line"/>
      <point x="255" y="134" type="line"/>
      <point x="175" y="0" type="line"/>
      <point x="-58" y="0" type="line"/>
      <point x="419" y="730" type="line"/>
    </contour>
    <contour>
      <point x="523" y="577" type="line"/>
      <point x="358" y="308" type="line"/>
      <point x="471" y="308" type="line"/>
    </contour>
  </outline>
</glyph>
<glyph name="Ccedilla" format="1">
  <advance width="708"/>
  <unicode hex="00C7"/>
  <outline>
    <contour>
      <point x="296" y="-5" type="line"/>
      <point x="123" y="24"/>
      <point x="20" y="148"/>
      <point x="20" y="318" type="curve" smooth="yes"/>
      <point x="20" y="543"/>
      <point x="196" y="742"/>
      <point x="448" y="742" type="curve" smooth="yes"/>
      <point x="589" y="742"/>
      <point x="675" y="677"/>
      <point x="718" y="621" type="curve"/>
      <point x="572" y="466" type="line"/>
      <point x="559" y="486"/>
      <point x="516" y="541"/>
      <point x="431" y="541" type="curve" smooth="yes"/>
      <point x="331" y="541"/>
      <point x="263" y="444"/>
      <point x="263" y="337" type="curve" smooth="yes"/>
      <point x="263" y="246"/>
      <point x="316" y="187"/>
      <point x="409" y="187" type="curve" smooth="yes"/>
      <point x="458" y="187"/>
      <point x="503" y="208"/>
      <point x="548" y="240" type="curve"/>
      <point x="637" y="74" type="line"/>
      <point x="563" y="22"/>
      <point x="485" y="-11"/>
      <point x="375" y="-11" type="curve"/>
      <point x="364" y="-22" type="line"/>
      <point x="416" y="-20"/>
      <point x="447" y="-56"/>
      <point x="447" y="-94" type="curve" smooth="yes"/>
      <point x="446" y="-158"/>
      <point x="375" y="-202"/>
      <point x="309" y="-202" type="curve" smooth="yes"/>
      <point x="267" y="-202"/>
      <point x="224" y="-183"/>
      <point x="199" y="-165" type="curve"/>
      <point x="248" y="-101" type="line"/>
      <point x="270" y="-113"/>
      <point x="291" y="-122"/>
      <point x="316" y="-122" type="curve" smooth="yes"/>
      <point x="331" y="-122"/>
      <point x="342" y="-113"/>
      <point x="343" y="-103" type="curve" smooth="yes"/>
      <point x="344" y="-94"/>
      <point x="339" y="-84"/>
      <point x="318" y="-84" type="curve" smooth="yes"/>
      <point x="305" y="-84"/>
      <point x="289" y="-88"/>
      <point x="275" y="-96" type="curve"/>
      <point x="260" y="-44" type="line"/>
    </contour>
  </outline>
</glyph>
<glyph name="Eth" format="1">
  <advance width="817"/>
  <unicode hex="00D0"/>
  <outline>
    <contour>
      <point x="795" y="438" type="curve" smooth="yes"/>
      <point x="795" y="155"/>
      <point x="580" y="0"/>
      <point x="310" y="0" type="curve" smooth="yes"/>
      <point x="37" y="0" type="line"/>
      <point x="84" y="267" type="line"/>
      <point x="-5" y="267" type="line"/>
      <point x="26" y="441" type="line"/>
      <point x="115" y="441" type="line"/>
      <point x="166" y="730" type="line"/>
      <point x="438" y="730" type="line" smooth="yes"/>
      <point x="650" y="730"/>
      <point x="795" y="632"/>
    </contour>
    <contour>
      <point x="509" y="409" type="curve" smooth="yes"/>
      <point x="509" y="497"/>
      <point x="462" y="539"/>
      <point x="382" y="539" type="curve" smooth="yes"/>
      <point x="359" y="539" type="line"/>
      <point x="342" y="441" type="line"/>
      <point x="425" y="441" type="line"/>
      <point x="394" y="267" type="line"/>
      <point x="311" y="267" type="line"/>
      <point x="298" y="191" type="line"/>
      <point x="310" y="191" type="line" smooth="yes"/>
      <point x="417" y="191"/>
      <point x="509" y="283"/>
    </contour>
  </outline>
</glyph>
<glyph name="multiply" format="1">
  <advance width="606"/>
  <unicode hex="00D7"/>
  <outline>
    <contour>
      <point x="276" y="209" type="curve"/>
      <point x="112" y="70" type="line"/>
      <point x="7" y="204" type="line"/>
      <point x="167" y="340" type="line"/>
      <point x="53" y="477" type="line"/>
      <point x="199" y="600" type="line"/>
      <point x="311" y="463" type="line"/>
      <point x="473" y="601" type="line"/>
      <point x="583" y="471" type="line"/>
      <point x="419" y="331" type="line"/>
      <point x="531" y="195" type="line"/>
      <point x="389" y="74" type="line"/>
      <point x="389" y="74"/>
      <point x="276" y="210"/>
    </contour>
  </outline>
</glyph>
<glyph name="Oslash" format="1">
  <advance width="844"/>
  <unicode hex="00D8"/>
  <outline>
    <contour>
      <point x="822" y="407" type="curve" smooth="yes"/>
      <point x="822" y="177"/>
      <point x="646" y="-11"/>
      <point x="393" y="-11" type="curve" smooth="yes"/>
      <point x="291" y="-11"/>
      <point x="202" y="18"/>
      <point x="137" y="72" type="curve"/>
      <point x="42" y="-5" type="line"/>
      <point x="-18" y="64" type="line"/>
      <point x="76" y="139" type="line"/>
      <point x="42" y="190"/>
      <point x="23" y="254"/>
      <point x="23" y="327" type="curve" smooth="yes"/>
      <point x="23" y="546"/>
      <point x="195" y="741"/>
      <point x="459" y="741" type="curve" smooth="yes"/>
      <point x="565" y="741"/>
      <point x="652" y="708"/>
      <point x="715" y="653" type="curve"/>
      <point x="805" y="725" type="line"/>
      <point x="863" y="659" type="line"/>
      <point x="772" y="586" type="line"/>
      <point x="805" y="534"/>
      <point x="822" y="473"/>
    </contour>
    <contour>
      <point x="537" y="510" type="line"/>
      <point x="512" y="535"/>
      <point x="477" y="548"/>
      <point x="434" y="548" type="curve" smooth="yes"/>
      <point x="332" y="548"/>
      <point x="266" y="445"/>
      <point x="266" y="335" type="curve" smooth="yes"/>
      <point x="266" y="321"/>
      <point x="267" y="308"/>
      <point x="270" y="295" type="curve"/>
    </contour>
    <contour>
      <point x="580" y="392" type="curve" smooth="yes"/>
      <point x="580" y="405"/>
      <point x="579" y="417"/>
      <point x="577" y="428" type="curve"/>
      <point x="315" y="216" type="line"/>
      <point x="339" y="195"/>
      <point x="371" y="183"/>
      <point x="407" y="183" type="curve" smooth="yes"/>
      <point x="508" y="183"/>
      <point x="580" y="265"/>
    </contour>
  </outline>
</glyph>
<glyph name="Thorn" format="1">
  <advance width="662"/>
  <unicode hex="00DE"/>
  <outline>
    <contour>
      <point x="651" y="397" type="curve" smooth="yes"/>
      <point x="651" y="220"/>
      <point x="521" y="154"/>
      <point x="339" y="154" type="curve" smooth="yes"/>
      <point x="261" y="154" type="line"/>
      <point x="234" y="0" type="line"/>
      <point x="-5" y="0" type="line"/>
      <point x="124" y="730" type="line"/>
      <point x="363" y="730" type="line"/>
      <point x="338" y="590" type="line"/>
      <point x="422" y="590" type="line" smooth="yes"/>
      <point x="574" y="590"/>
      <point x="651" y="518"/>
    </contour>
    <contour>
      <point x="423" y="377" type="curve" smooth="yes"/>
      <point x="423" y="402"/>
      <point x="404" y="416"/>
      <point x="361" y="416" type="curve" smooth="yes"/>
      <point x="308" y="416" type="line"/>
      <point x="293" y="329" type="line"/>
      <point x="350" y="329" type="line" smooth="yes"/>
      <point x="408" y="329"/>
      <point x="423" y="347"/>
    </contour>
  </outline>
</glyph>
<glyph name="germandbls" format="1">
  <advance width="630"/>
  <unicode hex="00DF"/>
  <outline>
    <contour>
      <point x="588" y="567" type="curve" smooth="yes"/>
      <point x="588" y="502"/>
      <point x="549" y="439"/>
      <point x="472" y="408" type="curve"/>
      <point x="523" y="396"/>
      <point x="589" y="358"/>
      <point x="589" y="255" type="curve" smooth="yes"/>
      <point x="589" y="96"/>
      <point x="468" y="-12"/>
      <point x="308" y="-12" type="curve" smooth="yes"/>
      <point x="290" y="-12"/>
      <point x="255" y="-8"/>
      <point x="244" y="-6" type="curve"/>
      <point x="269" y="138" type="line"/>
      <point x="275" y="138"/>
      <point x="280" y="138"/>
      <point x="286" y="138" type="curve" smooth="yes"/>
      <point x="348" y="138"/>
      <point x="395" y="176"/>
      <point x="395" y="262" type="curve" smooth="yes"/>
      <point x="395" y="312"/>
      <point x="361" y="343"/>
      <point x="277" y="344" type="curve"/>
      <point x="297" y="458" type="line"/>
      <point x="299" y="458"/>
      <point x="301" y="458"/>
      <point x="302" y="458" type="curve" smooth="yes"/>
      <point x="363" y="458"/>
      <point x="381" y="507"/>
      <point x="381" y="542" type="curve" smooth="yes"/>
      <point x="381" y="568"/>
      <point x="364" y="581"/>
      <point x="341" y="581" type="curve" smooth="yes"/>
      <point x="313" y="581"/>
      <point x="293" y="564"/>
      <point x="287" y="528" type="curve" smooth="yes"/>
      <point x="258" y="361"/>
      <point x="162" y="-180"/>
      <point x="162" y="-180" type="curve"/>
      <point x="-54" y="-180" type="line"/>
      <point x="69" y="517" type="line" smooth="yes"/>
      <point x="96" y="671"/>
      <point x="200" y="742"/>
      <point x="352" y="742" type="curve" smooth="yes"/>
      <point x="504" y="742"/>
      <point x="588" y="664"/>
    </contour>
  </outline>
</glyph>
<glyph name="ae" format="1">
  <advance width="831"/>
  <unicode hex="00E6"/>
  <outline>
    <contour>
      <point x="792" y="253" type="curve" smooth="yes"/>
      <point x="792" y="232"/>
      <point x="790" y="208"/>
      <point x="785" y="182" type="curve"/>
      <point x="484" y="182" type="line"/>
      <point x="484" y="180"/>
      <point x="485" y="178"/>
      <point x="485" y="177" type="curve"/>
      <point x="493" y="131"/>
      <point x="523" y="114"/>
      <point x="574" y="114" type="curve" smooth="yes"/>
      <point x="623" y="114"/>
      <point x="665" y="125"/>
      <point x="714" y="153" type="curve"/>
      <point x="766" y="49" type="line"/>
      <point x="701" y="5"/>
      <point x="632" y="-16"/>
      <point x="543" y="-16" type="curve" smooth="yes"/>
      <point x="428" y="-16"/>
      <point x="359" y="23"/>
      <point x="328" y="82" type="curve"/>
      <point x="271" y="25"/>
      <point x="220" y="-6"/>
      <point x="120" y="-6" type="curve" smooth="yes"/>
      <point x="37" y="-6"/>
      <point x="-16" y="35"/>
      <point x="-16" y="108" type="curve" smooth="yes"/>
      <point x="-16" y="222"/>
      <point x="97" y="280"/>
      <point x="279" y="288" type="curve" smooth="yes"/>
      <point x="290" y="288"/>
      <point x="301" y="289"/>
      <point x="312" y="289" type="curve"/>
      <point x="313" y="295" type="line" smooth="yes"/>
      <point x="318" y="323"/>
      <point x="289" y="334"/>
      <point x="237" y="334" type="curve" smooth="yes"/>
      <point x="195" y="334"/>
      <point x="143" y="322"/>
      <point x="99" y="301" type="curve"/>
      <point x="70" y="415" type="line"/>
      <point x="126" y="440"/>
      <point x="183" y="465"/>
      <point x="285" y="465" type="curve" smooth="yes"/>
      <point x="371" y="465"/>
      <point x="413" y="436"/>
      <point x="429" y="406" type="curve"/>
      <point x="469" y="440"/>
      <point x="535" y="463"/>
      <point x="589" y="463" type="curve" smooth="yes"/>
      <point x="689" y="463"/>
      <point x="792" y="409"/>
    </contour>
    <contour>
      <point x="609" y="272" type="line"/>
      <point x="615" y="317"/>
      <point x="600" y="349"/>
      <point x="564" y="349" type="curve" smooth="yes"/>
      <point x="536" y="349"/>
      <point x="507" y="330"/>
      <point x="496" y="272" type="curve"/>
    </contour>
    <contour>
      <point x="299" y="200" type="curve"/>
      <point x="293" y="200"/>
      <point x="287" y="200"/>
      <point x="281" y="199" type="curve"/>
      <point x="221" y="196"/>
      <point x="187" y="172"/>
      <point x="187" y="141" type="curve" smooth="yes"/>
      <point x="187" y="124"/>
      <point x="200" y="109"/>
      <point x="225" y="109" type="curve" smooth="yes"/>
      <point x="256" y="109"/>
      <point x="287" y="133"/>
      <point x="293" y="167" type="curve" smooth="yes"/>
      <point x="295" y="177"/>
      <point x="299" y="200"/>
    </contour>
  </outline>
</glyph>
<glyph name="ccedilla" format="1">
  <advance width="486"/>
  <unicode hex="00E7"/>
  <outline>
    <contour>
      <point x="170" y="-6" type="line"/>
      <point x="70" y="15"/>
      <point x="-4" y="86"/>
      <point x="-4" y="197" type="curve" smooth="yes"/>
      <point x="-4" y="346"/>
      <point x="132" y="473"/>
      <point x="295" y="473" type="curve" smooth="yes"/>
      <point x="396" y="473"/>
      <point x="443" y="439"/>
      <point x="474" y="399" type="curve"/>
      <point x="339" y="281" type="line"/>
      <point x="328" y="296"/>
      <point x="308" y="310"/>
      <point x="281" y="310" type="curve" smooth="yes"/>
      <point x="229" y="310"/>
      <point x="200" y="258"/>
      <point x="200" y="214" type="curve" smooth="yes"/>
      <point x="200" y="176"/>
      <point x="219" y="151"/>
      <point x="255" y="151" type="curve" smooth="yes"/>
      <point x="287" y="151"/>
      <point x="302" y="162"/>
      <point x="326" y="185" type="curve"/>
      <point x="436" y="83" type="line"/>
      <point x="391" y="34"/>
      <point x="315" y="-11"/>
      <point x="237" y="-12" type="curve"/>
      <point x="222" y="-28" type="line"/>
      <point x="261" y="-27"/>
      <point x="301" y="-44"/>
      <point x="301" y="-99" type="curve" smooth="yes"/>
      <point x="301" y="-162"/>
      <point x="243" y="-193"/>
      <point x="183" y="-193" type="curve" smooth="yes"/>
      <point x="141" y="-193"/>
      <point x="101" y="-178"/>
      <point x="77" y="-159" type="curve"/>
      <point x="119" y="-103" type="line"/>
      <point x="138" y="-115"/>
      <point x="158" y="-122"/>
      <point x="183" y="-122" type="curve" smooth="yes"/>
      <point x="201" y="-122"/>
      <point x="215" y="-115"/>
      <point x="215" y="-102" type="curve" smooth="yes"/>
      <point x="215" y="-92"/>
      <point x="207" y="-85"/>
      <point x="187" y="-85" type="curve" smooth="yes"/>
      <point x="174" y="-85"/>
      <point x="158" y="-90"/>
      <point x="148" y="-96" type="curve"/>
      <point x="133" y="-48" type="line"/>
    </contour>
  </outline>
</glyph>
<glyph name="eth" format="1">
  <advance width="536"/>
  <unicode hex="00F0"/>
  <outline>
    <contour>
      <point x="497" y="335" type="curve" smooth="yes"/>
      <point x="497" y="129"/>
      <point x="401" y="-12"/>
      <point x="198" y="-12" type="curve" smooth="yes"/>
      <point x="78" y="-12"/>
      <point x="-2" y="83"/>
      <point x="-2" y="181" type="curve" smooth="yes"/>
      <point x="-2" y="334"/>
      <point x="100" y="430"/>
      <point x="202" y="430" type="curve" smooth="yes"/>
      <point x="245" y="430"/>
      <point x="282" y="406"/>
      <point x="297" y="387" type="curve"/>
      <point x="301" y="432"/>
      <point x="295" y="477"/>
      <point x="278" y="521" type="curve"/>
      <point x="180" y="480" type="line"/>
      <point x="138" y="556" type="line"/>
      <point x="235" y="598" type="line"/>
      <point x="215" y="625"/>
      <point x="190" y="650"/>
      <point x="161" y="672" type="curve"/>
      <point x="241" y="763" type="line"/>
      <point x="292" y="735"/>
      <point x="336" y="699"/>
      <point x="373" y="658" type="curve"/>
      <point x="502" y="714" type="line"/>
      <point x="542" y="630" type="line"/>
      <point x="428" y="583" type="line"/>
      <point x="473" y="507"/>
      <point x="497" y="421"/>
    </contour>
    <contour>
      <point x="288" y="231" type="curve" smooth="yes"/>
      <point x="294" y="267"/>
      <point x="287" y="297"/>
      <point x="255" y="297" type="curve" smooth="yes"/>
      <point x="223" y="297"/>
      <point x="206" y="266"/>
      <point x="198" y="222" type="curve" smooth="yes"/>
      <point x="191" y="181"/>
      <point x="201" y="150"/>
      <point x="228" y="150" type="curve" smooth="yes"/>
      <point x="260" y="150"/>
      <point x="278" y="175"/>
    </contour>
  </outline>
</glyph>
<glyph name="oslash" format="1">
  <advance width="570"/>
  <unicode hex="00F8"/>
  <outline>
    <contour>
      <point x="557" y="413" type="line"/>
      <point x="557" y="413"/>
      <point x="505" y="374"/>
      <point x="505" y="373" type="curve"/>
      <point x="524" y="344"/>
      <point x="535" y="309"/>
      <point x="535" y="269" type="curve" smooth="yes"/>
      <point x="535" y="103"/>
      <point x="389" y="-12"/>
      <point x="235" y="-12" type="curve" smooth="yes"/>
      <point x="175" y="-12"/>
      <point x="122" y="3"/>
      <point x="82" y="30" type="curve"/>
      <point x="15" y="-25" type="line"/>
      <point x="-43" y="43" type="line"/>
      <point x="-43" y="43"/>
      <point x="21" y="96"/>
      <point x="21" y="95" type="curve"/>
      <point x="5" y="124"/>
      <point x="-4" y="158"/>
      <point x="-4" y="197" type="curve" smooth="yes"/>
      <point x="-4" y="354"/>
      <point x="139" y="473"/>
      <point x="297" y="473" type="curve" smooth="yes"/>
      <point x="352" y="473"/>
      <point x="402" y="460"/>
      <point x="441" y="435" type="curve"/>
      <point x="442" y="435"/>
      <point x="499" y="484"/>
      <point x="499" y="484" type="curve"/>
    </contour>
    <contour>
      <point x="336" y="246" type="curve" smooth="yes"/>
      <point x="336" y="286"/>
      <point x="315" y="314"/>
      <point x="277" y="314" type="curve" smooth="yes"/>
      <point x="231" y="314"/>
      <point x="195" y="264"/>
      <point x="195" y="212" type="curve" smooth="yes"/>
      <point x="195" y="174"/>
      <point x="215" y="145"/>
      <point x="254" y="145" type="curve" smooth="yes"/>
      <point x="293" y="145"/>
      <point x="336" y="191"/>
    </contour>
  </outline>
</glyph>
<glyph name="thorn" format="1">
  <advance width="625"/>
  <unicode hex="00FE"/>
  <outline>
    <contour>
      <point x="590" y="274" type="curve" smooth="yes"/>
      <point x="590" y="138"/>
      <point x="494" y="-8"/>
      <point x="344" y="-8" type="curve" smooth="yes"/>
      <point x="286" y="-8"/>
      <point x="244" y="11"/>
      <point x="214" y="47" type="curve"/>
      <point x="174" y="-179" type="line"/>
      <point x="-50" y="-179" type="line"/>
      <point x="111" y="730" type="line"/>
      <point x="335" y="730" type="line"/>
      <point x="279" y="414" type="line"/>
      <point x="316" y="445"/>
      <point x="364" y="469"/>
      <point x="415" y="469" type="curve" smooth="yes"/>
      <point x="525" y="469"/>
      <point x="590" y="386"/>
    </contour>
    <contour>
      <point x="373" y="226" type="curve" smooth="yes"/>
      <point x="382" y="275"/>
      <point x="357" y="311"/>
      <point x="314" y="311" type="curve" smooth="yes"/>
      <point x="273" y="311"/>
      <point x="243" y="283"/>
      <point x="235" y="239" type="curve" smooth="yes"/>
      <point x="227" y="193"/>
      <point x="245" y="149"/>
      <point x="297" y="149" type="curve" smooth="yes"/>
      <point x="329" y="149"/>
      <point x="363" y="170"/>
    </contour>
  </outline>
</glyph>
<glyph name="dotlessi" format="1">
  <advance width="312"/>
  <unicode hex="0131"/>
  <outline>
    <contour>
      <point x="289" y="461" type="line"/>
      <point x="208" y="0" type="line"/>
      <point x="-16" y="0" type="line"/>
      <point x="65" y="461" type="line"/>
    </contour>
  </outline>
</glyph>
<glyph name="Lslash" format="1">
  <advance width="581"/>
  <unicode hex="0141"/>
  <outline>
    <contour>
      <point x="497" y="399" type="line"/>
      <point x="309" y="339" type="line"/>
      <point x="282" y="186" type="line"/>
      <point x="521" y="186" type="line"/>
      <point x="488" y="0" type="line"/>
      <point x="15" y="0" type="line"/>
      <point x="61" y="259" type="line"/>
      <point x="22" y="247" type="line"/>
      <point x="-24" y="394" type="line"/>
      <point x="91" y="430" type="line"/>
      <point x="144" y="730" type="line"/>
      <point x="378" y="730" type="line"/>
      <point x="339" y="509" type="line"/>
      <point x="454" y="545" type="line"/>
    </contour>
  </outline>
</glyph>
<glyph name="lslash" format="1">
  <advance width="368"/>
  <unicode hex="0142"/>
  <outline>
    <contour>
      <point x="428" y="362" type="line"/>
      <point x="299" y="322" type="line"/>
      <point x="242" y="0" type="line"/>
      <point x="18" y="0" type="line"/>
      <point x="62" y="249" type="line"/>
      <point x="22" y="237" type="line"/>
      <point x="-14" y="397" type="line"/>
      <point x="94" y="429" type="line"/>
      <point x="147" y="730" type="line"/>
      <point x="371" y="730" type="line"/>
      <point x="330" y="500" type="line"/>
      <point x="389" y="518" type="line"/>
    </contour>
  </outline>
</glyph>
<glyph name="OE" format="1">
  <advance width="1037"/>
  <unicode hex="0152"/>
  <outline>
    <contour>
      <point x="1047" y="730" type="line"/>
      <point x="1014" y="546" type="line"/>
      <point x="802" y="546" type="line"/>
      <point x="786" y="455" type="line"/>
      <point x="964" y="455" type="line"/>
      <point x="932" y="273" type="line"/>
      <point x="754" y="273" type="line"/>
      <point x="738" y="184" type="line"/>
      <point x="960" y="184" type="line"/>
      <point x="928" y="0" type="line"/>
      <point x="527" y="0" type="line"/>
      <point x="535" y="45" type="line"/>
      <point x="504" y="16"/>
      <point x="440" y="-5"/>
      <point x="378" y="-5" type="curve" smooth="yes"/>
      <point x="180" y="-5"/>
      <point x="23" y="116"/>
      <point x="23" y="328" type="curve" smooth="yes"/>
      <point x="23" y="555"/>
      <point x="194" y="741"/>
      <point x="452" y="741" type="curve" smooth="yes"/>
      <point x="537" y="741"/>
      <point x="608" y="715"/>
      <point x="644" y="685" type="curve"/>
      <point x="652" y="730" type="line"/>
    </contour>
    <contour>
      <point x="580" y="410" type="curve" smooth="yes"/>
      <point x="580" y="491"/>
      <point x="535" y="550"/>
      <point x="443" y="550" type="curve" smooth="yes"/>
      <point x="341" y="550"/>
      <point x="266" y="456"/>
      <point x="266" y="335" type="curve" smooth="yes"/>
      <point x="266" y="244"/>
      <point x="322" y="183"/>
      <point x="409" y="183" type="curve" smooth="yes"/>
      <point x="520" y="183"/>
      <point x="580" y="281"/>
    </contour>
  </outline>
</glyph>
<glyph name="oe" format="1">
  <advance width="874"/>
  <unicode hex="0153"/>
  <outline>
    <contour>
      <point x="829" y="260" type="curve" smooth="yes"/>
      <point x="829" y="238"/>
      <point x="827" y="214"/>
      <point x="822" y="188" type="curve"/>
      <point x="518" y="188" type="line"/>
      <point x="518" y="185"/>
      <point x="519" y="182"/>
      <point x="520" y="179" type="curve"/>
      <point x="529" y="135"/>
      <point x="558" y="119"/>
      <point x="609" y="119" type="curve" smooth="yes"/>
      <point x="658" y="119"/>
      <point x="701" y="130"/>
      <point x="750" y="159" type="curve"/>
      <point x="803" y="53" type="line"/>
      <point x="737" y="9"/>
      <point x="667" y="-12"/>
      <point x="577" y="-12" type="curve" smooth="yes"/>
      <point x="499" y="-12"/>
      <point x="442" y="2"/>
      <point x="399" y="39" type="curve"/>
      <point x="351" y="8"/>
      <point x="296" y="-12"/>
      <point x="235" y="-12" type="curve" smooth="yes"/>
      <point x="98" y="-12"/>
      <point x="-4" y="68"/>
      <point x="-4" y="203" type="curve" smooth="yes"/>
      <point x="-4" y="363"/>
      <point x="140" y="473"/>
      <point x="294" y="473" type="curve" smooth="yes"/>
      <point x="357" y="473"/>
      <point x="411" y="453"/>
      <point x="451" y="421" type="curve"/>
      <point x="489" y="449"/>
      <point x="547" y="473"/>
      <point x="606" y="473" type="curve" smooth="yes"/>
      <point x="742" y="473"/>
      <point x="829" y="403"/>
    </contour>
    <contour>
      <point x="644" y="279" type="line"/>
      <point x="653" y="328"/>
      <point x="633" y="356"/>
      <point x="599" y="356" type="curve" smooth="yes"/>
      <point x="572" y="356"/>
      <point x="539" y="338"/>
      <point x="528" y="279" type="curve"/>
    </contour>
    <contour>
      <point x="336" y="246" type="curve" smooth="yes"/>
      <point x="336" y="286"/>
      <point x="315" y="314"/>
      <point x="277" y="314" type="curve" smooth="yes"/>
      <point x="231" y="314"/>
      <point x="195" y="267"/>
      <point x="195" y="212" type="curve" smooth="yes"/>
      <point x="195" y="174"/>
      <point x="215" y="145"/>
      <point x="254" y="145" type="curve" smooth="yes"/>
      <point x="300" y="145"/>
      <point x="336" y="191"/>
    </contour>
  </outline>
</glyph>
<glyph name="florin" format="1">
  <advance width="428"/>
  <unicode hex="0192"/>
  <outline>
    <contour>
      <point x="464" y="742" type="curve"/>
      <point x="420" y="576" type="line"/>
      <point x="411" y="576"/>
      <point x="398" y="576"/>
      <point x="395" y="576" type="curve" smooth="yes"/>
      <point x="378" y="576"/>
      <point x="372" y="563"/>
      <point x="363" y="527" type="curve" smooth="yes"/>
      <point x="343" y="450" type="line"/>
      <point x="392" y="450" type="line"/>
      <point x="354" y="302" type="line"/>
      <point x="305" y="302" type="line"/>
      <point x="222" y="-9" type="line" smooth="yes"/>
      <point x="198" y="-100"/>
      <point x="151" y="-179"/>
      <point x="26" y="-179" type="curve" smooth="yes"/>
      <point x="13" y="-179"/>
      <point x="-84" y="-179"/>
      <point x="-84" y="-179" type="curve"/>
      <point x="-38" y="-3" type="line"/>
      <point x="-38" y="-3"/>
      <point x="-22" y="-3"/>
      <point x="-18" y="-3" type="curve" smooth="yes"/>
      <point x="0" y="-3"/>
      <point x="7" y="13"/>
      <point x="16" y="48" type="curve" smooth="yes"/>
      <point x="84" y="302" type="line"/>
      <point x="36" y="302" type="line"/>
      <point x="74" y="450" type="line"/>
      <point x="122" y="450" type="line"/>
      <point x="154" y="568" type="line" smooth="yes"/>
      <point x="180" y="664"/>
      <point x="232" y="742"/>
      <point x="348" y="742" type="curve" smooth="yes"/>
      <point x="395" y="742"/>
      <point x="454" y="742"/>
    </contour>
  </outline>
</glyph>
<glyph name="circumflex" format="1">
  <advance width="500"/>
  <unicode hex="02C6"/>
  <outline>
    <contour>
      <point x="455" y="498" type="line"/>
      <point x="319" y="498" type="line"/>
      <point x="285" y="565" type="line"/>
      <point x="227" y="498" type="line"/>
      <point x="91" y="498" type="line"/>
      <point x="236" y="675" type="line"/>
      <point x="372" y="675" type="line"/>
    </contour>
  </outline>
</glyph>
<glyph name="caron" format="1">
  <advance width="500"/>
  <unicode hex="02C7"/>
  <outline>
    <contour>
      <point x="486" y="675" type="line"/>
      <point x="341" y="498" type="line"/>
      <point x="205" y="498" type="line"/>
      <point x="122" y="675" type="line"/>
      <point x="258" y="675" type="line"/>
      <point x="292" y="608" type="line"/>
      <point x="350" y="675" type="line"/>
    </contour>
  </outline>
</glyph>
<glyph name="breve" format="1">
  <advance width="500"/>
  <unicode hex="02D8"/>
  <outline>
    <contour>
      <point x="470" y="661" type="line"/>
      <point x="441" y="549"/>
      <point x="361" y="498"/>
      <point x="274" y="498" type="curve" smooth="yes"/>
      <point x="187" y="498"/>
      <point x="125" y="549"/>
      <point x="137" y="661" type="curve"/>
      <point x="233" y="661" type="line"/>
      <point x="235" y="616"/>
      <point x="260" y="597"/>
      <point x="292" y="597" type="curve" smooth="yes"/>
      <point x="323" y="597"/>
      <point x="354" y="616"/>
      <point x="372" y="661" type="curve"/>
    </contour>
  </outline>
</glyph>
<glyph name="dotaccent" format="1">
  <advance width="500"/>
  <unicode hex="02D9"/>
  <outline>
    <contour>
      <point x="382" y="652" type="line"/>
      <point x="355" y="498" type="line"/>
      <point x="189" y="498" type="line"/>
      <point x="216" y="652" type="line"/>
    </contour>
  </outline>
</glyph>
<glyph name="ring" format="1">
  <advance width="500"/>
  <unicode hex="02DA"/>
  <outline>
    <contour>
      <point x="439" y="641" type="curve" smooth="yes"/>
      <point x="439" y="561"/>
      <point x="374" y="496"/>
      <point x="294" y="496" type="curve" smooth="yes"/>
      <point x="214" y="496"/>
      <point x="149" y="561"/>
      <point x="149" y="641" type="curve" smooth="yes"/>
      <point x="149" y="721"/>
      <point x="214" y="786"/>
      <point x="294" y="786" type="curve" smooth="yes"/>
      <point x="374" y="786"/>
      <point x="439" y="721"/>
    </contour>
    <contour>
      <point x="343" y="641" type="curve" smooth="yes"/>
      <point x="343" y="669"/>
      <point x="322" y="691"/>
      <point x="294" y="691" type="curve" smooth="yes"/>
      <point x="266" y="691"/>
      <point x="245" y="669"/>
      <point x="245" y="641" type="curve" smooth="yes"/>
      <point x="245" y="614"/>
      <point x="266" y="591"/>
      <point x="294" y="591" type="curve" smooth="yes"/>
      <point x="322" y="591"/>
      <point x="343" y="614"/>
    </contour>
  </outline>
</glyph>
<glyph name="ogonek" format="1">
  <advance width="500"/>
  <unicode hex="02DB"/>
  <outline>
    <contour>
      <point x="283" y="19" type="line"/>
      <point x="179" y="-36"/>
      <point x="153" y="-67"/>
      <point x="149" y="-91" type="curve" smooth="yes"/>
      <point x="146" y="-109"/>
      <point x="161" y="-120"/>
      <point x="182" y="-120" type="curve" smooth="yes"/>
      <point x="198" y="-120"/>
      <point x="216" y="-114"/>
      <point x="243" y="-99" type="curve"/>
      <point x="274" y="-155" type="line"/>
      <point x="228" y="-186"/>
      <point x="193" y="-199"/>
      <point x="148" y="-199" type="curve" smooth="yes"/>
      <point x="76" y="-199"/>
      <point x="28" y="-161"/>
      <point x="38" y="-103" type="curve" smooth="yes"/>
      <point x="45" y="-63"/>
      <point x="90" y="-10"/>
      <point x="170" y="19" type="curve"/>
    </contour>
  </outline>
</glyph>
<glyph name="tilde" format="1">
  <advance width="500"/>
  <unicode hex="02DC"/>
  <outline>
    <contour>
      <point x="471" y="657" type="line"/>
      <point x="452" y="551"/>
      <point x="390" y="496"/>
      <point x="320" y="496" type="curve" smooth="yes"/>
      <point x="294" y="496"/>
      <point x="272" y="507"/>
      <point x="253" y="518" type="curve" smooth="yes"/>
      <point x="234" y="528"/>
      <point x="218" y="539"/>
      <point x="204" y="539" type="curve" smooth="yes"/>
      <point x="188" y="539"/>
      <point x="170" y="530"/>
      <point x="167" y="498" type="curve"/>
      <point x="71" y="498" type="line"/>
      <point x="90" y="603"/>
      <point x="151" y="659"/>
      <point x="222" y="659" type="curve" smooth="yes"/>
      <point x="246" y="659"/>
      <point x="266" y="648"/>
      <point x="286" y="637" type="curve" smooth="yes"/>
      <point x="305" y="627"/>
      <point x="322" y="616"/>
      <point x="336" y="616" type="curve" smooth="yes"/>
      <point x="352" y="616"/>
      <point x="370" y="624"/>
      <point x="374" y="657" type="curve"/>
    </contour>
  </outline>
</glyph>
<glyph name="hungarumlaut" format="1">
  <advance width="500"/>
  <unicode hex="02DD"/>
  <outline>
    <contour>
      <point x="529" y="676" type="line"/>
      <point x="402" y="498" type="line"/>
      <point x="248" y="498" type="line"/>
      <point x="373" y="676" type="line"/>
    </contour>
    <contour>
      <point x="332" y="676" type="line"/>
      <point x="205" y="498" type="line"/>
      <point x="49" y="498" type="line"/>
      <point x="174" y="676" type="line"/>
    </contour>
  </outline>
</glyph>
<glyph name="endash" format="1">
  <advance width="589"/>
  <unicode hex="2013"/>
  <outline>
    <contour>
      <point x="549" y="382" type="line"/>
      <point x="516" y="196" type="line"/>
      <point x="22" y="196" type="line"/>
      <point x="55" y="382" type="line"/>
    </contour>
  </outline>
</glyph>
<glyph name="emdash" format="1">
  <advance width="1000"/>
  <unicode hex="2014"/>
  <outline>
    <contour>
      <point x="950" y="382" type="line"/>
      <point x="917" y="196" type="line"/>
      <point x="33" y="196" type="line"/>
      <point x="66" y="382" type="line"/>
    </contour>
  </outline>
</glyph>
<glyph name="quoteleft" format="1">
  <advance width="300"/>
  <unicode hex="2018"/>
  <unicode hex="02BB"/>
  <outline>
    <contour>
      <point x="342" y="672" type="line"/>
      <point x="312" y="637"/>
      <point x="297" y="594"/>
      <point x="288" y="546" type="curve" smooth="yes"/>
      <point x="258" y="379" type="line"/>
      <point x="39" y="379" type="line"/>
      <point x="64" y="518" type="line" smooth="yes"/>
      <point x="80" y="606"/>
      <point x="140" y="687"/>
      <point x="233" y="751" type="curve"/>
    </contour>
  </outline>
</glyph>
<glyph name="quoteright" format="1">
  <advance width="300"/>
  <unicode hex="2019"/>
  <unicode hex="02BC"/>
  <outline>
    <contour>
      <point x="333" y="730" type="line"/>
      <point x="308" y="591" type="line" smooth="yes"/>
      <point x="292" y="503"/>
      <point x="232" y="422"/>
      <point x="139" y="358" type="curve"/>
      <point x="30" y="437" type="line"/>
      <point x="60" y="472"/>
      <point x="76" y="516"/>
      <point x="84" y="563" type="curve" smooth="yes"/>
      <point x="114" y="730" type="line"/>
    </contour>
  </outline>
</glyph>
<glyph name="quotesinglbase" format="1">
  <advance width="300"/>
  <unicode hex="201A"/>
  <outline>
    <contour>
      <point x="207" y="83" type="line" smooth="yes"/>
      <point x="189" y="-21"/>
      <point x="133" y="-93"/>
      <point x="38" y="-150" type="curve"/>
      <point x="-72" y="-71" type="line"/>
      <point x="-41" y="-36"/>
      <point x="-26" y="5"/>
      <point x="-17" y="55" type="curve" smooth="yes"/>
      <point x="12" y="222" type="line"/>
      <point x="231" y="222" type="line"/>
    </contour>
  </outline>
</glyph>
<glyph name="quotedblleft" format="1">
  <advance width="590"/>
  <unicode hex="201C"/>
  <outline>
    <contour>
      <point x="630" y="672" type="line"/>
      <point x="600" y="637"/>
      <point x="585" y="594"/>
      <point x="576" y="546" type="curve" smooth="yes"/>
      <point x="546" y="379" type="line"/>
      <point x="327" y="379" type="line"/>
      <point x="352" y="518" type="line" smooth="yes"/>
      <point x="368" y="606"/>
      <point x="428" y="687"/>
      <point x="521" y="751" type="curve"/>
    </contour>
    <contour>
      <point x="342" y="672" type="line"/>
      <point x="312" y="637"/>
      <point x="297" y="594"/>
      <point x="288" y="546" type="curve" smooth="yes"/>
      <point x="258" y="379" type="line"/>
      <point x="39" y="379" type="line"/>
      <point x="64" y="518" type="line" smooth="yes"/>
      <point x="80" y="606"/>
      <point x="140" y="687"/>
      <point x="233" y="751" type="curve"/>
    </contour>
  </outline>
</glyph>
<glyph name="quotedblright" format="1">
  <advance width="590"/>
  <unicode hex="201D"/>
  <outline>
    <contour>
      <point x="623" y="730" type="line"/>
      <point x="598" y="591" type="line" smooth="yes"/>
      <point x="582" y="503"/>
      <point x="522" y="422"/>
      <point x="429" y="358" type="curve"/>
      <point x="320" y="437" type="line"/>
      <point x="350" y="472"/>
      <point x="366" y="516"/>
      <point x="374" y="563" type="curve" smooth="yes"/>
      <point x="404" y="730" type="line"/>
    </contour>
    <contour>
      <point x="333" y="730" type="line"/>
      <point x="308" y="591" type="line" smooth="yes"/>
      <point x="292" y="503"/>
      <point x="232" y="422"/>
      <point x="139" y="358" type="curve"/>
      <point x="30" y="437" type="line"/>
      <point x="60" y="472"/>
      <point x="76" y="516"/>
      <point x="84" y="563" type="curve" smooth="yes"/>
      <point x="114" y="730" type="line"/>
    </contour>
  </outline>
</glyph>
<glyph name="quotedblbase" format="1">
  <advance width="590"/>
  <unicode hex="201E"/>
  <outline>
    <contour>
      <point x="497" y="83" type="line" smooth="yes"/>
      <point x="479" y="-21"/>
      <point x="423" y="-93"/>
      <point x="328" y="-150" type="curve"/>
      <point x="218" y="-71" type="line"/>
      <point x="249" y="-36"/>
      <point x="264" y="5"/>
      <point x="273" y="55" type="curve" smooth="yes"/>
      <point x="302" y="222" type="line"/>
      <point x="521" y="222" type="line"/>
    </contour>
    <contour>
      <point x="207" y="83" type="line" smooth="yes"/>
      <point x="189" y="-21"/>
      <point x="133" y="-93"/>
      <point x="38" y="-150" type="curve"/>
      <point x="-72" y="-71" type="line"/>
      <point x="-41" y="-36"/>
      <point x="-26" y="5"/>
      <point x="-17" y="55" type="curve" smooth="yes"/>
      <point x="12" y="222" type="line"/>
      <point x="231" y="222" type="line"/>
    </contour>
  </outline>
</glyph>
<glyph name="dagger" format="1">
  <advance width="575"/>
  <unicode hex="2020"/>
  <outline>
    <contour>
      <point x="578" y="498" type="line"/>
      <point x="544" y="307" type="line"/>
      <point x="392" y="307" type="line"/>
      <point x="365" y="157" type="line"/>
      <point x="266" y="-179" type="line"/>
      <point x="115" y="-179" type="line"/>
      <point x="134" y="157" type="line"/>
      <point x="161" y="307" type="line"/>
      <point x="9" y="307" type="line"/>
      <point x="43" y="498" type="line"/>
      <point x="195" y="498" type="line"/>
      <point x="235" y="730" type="line"/>
      <point x="466" y="730" type="line"/>
      <point x="426" y="498" type="line"/>
    </contour>
  </outline>
</glyph>
<glyph name="daggerdbl" format="1">
  <advance width="575"/>
  <unicode hex="2021"/>
  <outline>
    <contour>
      <point x="588" y="551" type="line"/>
      <point x="557" y="377" type="line"/>
      <point x="405" y="377" type="line"/>
      <point x="350" y="276" type="line"/>
      <point x="369" y="174" type="line"/>
      <point x="521" y="174" type="line"/>
      <point x="491" y="0" type="line"/>
      <point x="339" y="0" type="line"/>
      <point x="307" y="-179" type="line"/>
      <point x="76" y="-179" type="line"/>
      <point x="108" y="0" type="line"/>
      <point x="-44" y="0" type="line"/>
      <point x="-14" y="174" type="line"/>
      <point x="138" y="174" type="line"/>
      <point x="193" y="275" type="line"/>
      <point x="174" y="377" type="line"/>
      <point x="22" y="377" type="line"/>
      <point x="53" y="551" type="line"/>
      <point x="205" y="551" type="line"/>
      <point x="236" y="730" type="line"/>
      <point x="467" y="730" type="line"/>
      <point x="436" y="551" type="line"/>
    </contour>
  </outline>
</glyph>
<glyph name="ellipsis" format="1">
  <advance width="884"/>
  <unicode hex="2026"/>
  <outline>
    <contour>
      <point x="802" y="192" type="line"/>
      <point x="768" y="0" type="line"/>
      <point x="566" y="0" type="line"/>
      <point x="600" y="192" type="line"/>
    </contour>
    <contour>
      <point x="513" y="192" type="line"/>
      <point x="479" y="0" type="line"/>
      <point x="277" y="0" type="line"/>
      <point x="311" y="192" type="line"/>
    </contour>
    <contour>
      <point x="224" y="192" type="line"/>
      <point x="190" y="0" type="line"/>
      <point x="-12" y="0" type="line"/>
      <point x="22" y="192" type="line"/>
    </contour>
  </outline>
</glyph>
<glyph name="perthousand" format="1">
  <advance width="1259"/>
  <unicode hex="2030"/>
  <outline>
    <contour>
      <point x="404" y="574" type="curve" smooth="yes"/>
      <point x="404" y="441"/>
      <point x="312" y="346"/>
      <point x="200" y="344" type="curve" smooth="yes"/>
      <point x="105" y="343"/>
      <point x="32" y="415"/>
      <point x="32" y="515" type="curve" smooth="yes"/>
      <point x="32" y="629"/>
      <point x="120" y="742"/>
      <point x="236" y="742" type="curve" smooth="yes"/>
      <point x="331" y="742"/>
      <point x="404" y="681"/>
    </contour>
    <contour>
      <point x="819" y="730" type="line"/>
      <point x="192" y="0" type="line"/>
      <point x="41" y="0" type="line"/>
      <point x="668" y="730" type="line"/>
    </contour>
    <contour>
      <point x="1227" y="217" type="curve" smooth="yes"/>
      <point x="1227" y="84"/>
      <point x="1135" y="-11"/>
      <point x="1023" y="-13" type="curve" smooth="yes"/>
      <point x="928" y="-14"/>
      <point x="855" y="58"/>
      <point x="855" y="158" type="curve" smooth="yes"/>
      <point x="855" y="272"/>
      <point x="943" y="385"/>
      <point x="1059" y="385" type="curve" smooth="yes"/>
      <point x="1154" y="385"/>
      <point x="1227" y="324"/>
    </contour>
    <contour>
      <point x="827" y="217" type="curve" smooth="yes"/>
      <point x="827" y="84"/>
      <point x="735" y="-11"/>
      <point x="623" y="-13" type="curve" smooth="yes"/>
      <point x="528" y="-14"/>
      <point x="455" y="58"/>
      <point x="455" y="158" type="curve" smooth="yes"/>
      <point x="455" y="272"/>
      <point x="543" y="385"/>
      <point x="659" y="385" type="curve" smooth="yes"/>
      <point x="754" y="385"/>
      <point x="827" y="324"/>
    </contour>
    <contour>
      <point x="274" y="577" type="curve" smooth="yes"/>
      <point x="274" y="622"/>
      <point x="258" y="641"/>
      <point x="232" y="641" type="curve" smooth="yes"/>
      <point x="191" y="641"/>
      <point x="162" y="564"/>
      <point x="162" y="514" type="curve" smooth="yes"/>
      <point x="162" y="473"/>
      <point x="174" y="445"/>
      <point x="203" y="445" type="curve" smooth="yes"/>
      <point x="251" y="445"/>
      <point x="274" y="521"/>
    </contour>
    <contour>
      <point x="1097" y="220" type="curve" smooth="yes"/>
      <point x="1097" y="265"/>
      <point x="1081" y="284"/>
      <point x="1055" y="284" type="curve" smooth="yes"/>
      <point x="1014" y="284"/>
      <point x="985" y="207"/>
      <point x="985" y="157" type="curve" smooth="yes"/>
      <point x="985" y="116"/>
      <point x="997" y="88"/>
      <point x="1026" y="88" type="curve" smooth="yes"/>
      <point x="1074" y="88"/>
      <point x="1097" y="164"/>
    </contour>
    <contour>
      <point x="697" y="220" type="curve" smooth="yes"/>
      <point x="697" y="265"/>
      <point x="681" y="284"/>
      <point x="655" y="284" type="curve" smooth="yes"/>
      <point x="614" y="284"/>
      <point x="585" y="207"/>
      <point x="585" y="157" type="curve" smooth="yes"/>
      <point x="585" y="116"/>
      <point x="597" y="88"/>
      <point x="626" y="88" type="curve" smooth="yes"/>
      <point x="674" y="88"/>
      <point x="697" y="164"/>
    </contour>
  </outline>
</glyph>
<glyph name="guilsinglleft" format="1">
  <advance width="300"/>
  <unicode hex="2039"/>
  <outline>
    <contour>
      <point x="259" y="441" type="line"/>
      <point x="230" y="276" type="line"/>
      <point x="136" y="235" type="line"/>
      <point x="216" y="197" type="line"/>
      <point x="187" y="34" type="line"/>
      <point x="6" y="140" type="line"/>
      <point x="40" y="333" type="line"/>
    </contour>
  </outline>
</glyph>
<glyph name="guilsinglright" format="1">
  <advance width="300"/>
  <unicode hex="203A"/>
  <outline>
    <contour>
      <point x="262" y="333" type="line"/>
      <point x="228" y="140" type="line"/>
      <point x="9" y="34" type="line"/>
      <point x="38" y="197" type="line"/>
      <point x="130" y="235" type="line"/>
      <point x="52" y="276" type="line"/>
      <point x="81" y="441" type="line"/>
    </contour>
  </outline>
</glyph>
<glyph name="fraction" format="1">
  <advance width="500"/>
  <unicode hex="2044"/>
  <outline>
    <contour>
      <point x="638" y="730" type="line"/>
      <point x="87" y="0" type="line"/>
      <point x="-138" y="0" type="line"/>
      <point x="413" y="730" type="line"/>
    </contour>
  </outline>
</glyph>
<glyph name="Euro" format="1">
  <advance width="711"/>
  <unicode hex="20AC"/>
  <outline>
    <contour>
      <point x="724" y="591" type="curve"/>
      <point x="538" y="490" type="line"/>
      <point x="528" y="518"/>
      <point x="508" y="557"/>
      <point x="463" y="557" type="curve" smooth="yes"/>
      <point x="406" y="557"/>
      <point x="366" y="510"/>
      <point x="350" y="444" type="curve"/>
      <point x="492" y="444" type="line"/>
      <point x="485" y="401" type="line"/>
      <point x="340" y="401" type="line"/>
      <point x="335" y="379"/>
      <point x="332" y="363"/>
      <point x="329" y="341" type="curve"/>
      <point x="474" y="341" type="line"/>
      <point x="467" y="300" type="line"/>
      <point x="323" y="300" type="line"/>
      <point x="317" y="226"/>
      <point x="339" y="172"/>
      <point x="394" y="172" type="curve" smooth="yes"/>
      <point x="449" y="172"/>
      <point x="482" y="201"/>
      <point x="523" y="247" type="curve"/>
      <point x="654" y="140" type="line"/>
      <point x="565" y="26"/>
      <point x="473" y="-12"/>
      <point x="360" y="-12" type="curve" smooth="yes"/>
      <point x="134" y="-12"/>
      <point x="92" y="146"/>
      <point x="100" y="300" type="curve"/>
      <point x="3" y="300" type="line"/>
      <point x="10" y="341" type="line"/>
      <point x="104" y="341" type="line"/>
      <point x="107" y="362"/>
      <point x="110" y="380"/>
      <point x="115" y="401" type="curve"/>
      <point x="21" y="401" type="line"/>
      <point x="28" y="444" type="line"/>
      <point x="125" y="444" type="line"/>
      <point x="178" y="621"/>
      <point x="308" y="742"/>
      <point x="487" y="742" type="curve" smooth="yes"/>
      <point x="606" y="742"/>
      <point x="690" y="682"/>
    </contour>
  </outline>
</glyph>
<glyph name="trademark" format="1">
  <advance width="956"/>
  <unicode hex="2122"/>
  <outline>
    <contour>
      <point x="914" y="292" type="line"/>
      <point x="768" y="292" type="line"/>
      <point x="768" y="506" type="line"/>
      <point x="700" y="378" type="line"/>
      <point x="633" y="378" type="line"/>
      <point x="564" y="506" type="line"/>
      <point x="564" y="292" type="line"/>
      <point x="426" y="292" type="line"/>
      <point x="426" y="730" type="line"/>
      <point x="568" y="730" type="line"/>
      <point x="668" y="555" type="line"/>
      <point x="760" y="730" type="line"/>
      <point x="914" y="730" type="line"/>
    </contour>
    <contour>
      <point x="377" y="618" type="line"/>
      <point x="290" y="618" type="line"/>
      <point x="290" y="292" type="line"/>
      <point x="150" y="292" type="line"/>
      <point x="150" y="618" type="line"/>
      <point x="63" y="618" type="line"/>
      <point x="63" y="730" type="line"/>
      <point x="377" y="730" type="line"/>
    </contour>
  </outline>
</glyph>
<glyph name="minus" format="1">
  <advance width="523"/>
  <unicode hex="2212"/>
  <outline>
    <contour>
      <point x="457" y="196" type="line"/>
      <point x="8" y="196" type="line"/>
      <point x="44" y="402" type="line"/>
      <point x="493" y="402" type="line"/>
    </contour>
  </outline>
</glyph>
<glyph name="radical" format="1">
  <advance width="654"/>
  <unicode hex="221A"/>
  <outline>
    <contour>
      <point x="714" y="730" type="line"/>
      <point x="351" y="0" type="line"/>
      <point x="111" y="0" type="line"/>
      <point x="22" y="432" type="line"/>
      <point x="230" y="432" type="line"/>
      <point x="257" y="289" type="line" smooth="yes"/>
      <point x="263" y="255"/>
      <point x="271" y="216"/>
      <point x="271" y="216" type="curve"/>
      <point x="271" y="216"/>
      <point x="287" y="256"/>
      <point x="302" y="289" type="curve" smooth="yes"/>
      <point x="502" y="730" type="line"/>
    </contour>
  </outline>
</glyph>
<glyph name="f_f_l" format="1">
  <advance width="1032"/>
  <unicode hex="FB04"/>
  <outline>
    <contour>
      <point x="1057" y="730" type="line"/>
      <point x="928" y="0" type="line"/>
      <point x="704" y="0" type="line"/>
      <point x="833" y="730" type="line"/>
    </contour>
    <contour>
      <point x="769" y="730" type="line"/>
      <point x="741" y="574" type="line"/>
      <point x="723" y="574" type="line" smooth="yes"/>
      <point x="693" y="574"/>
      <point x="681" y="552"/>
      <point x="675" y="521" type="curve" smooth="yes"/>
      <point x="664" y="461" type="line"/>
      <point x="726" y="461" type="line"/>
      <point x="700" y="312" type="line"/>
      <point x="638" y="312" type="line"/>
      <point x="552" y="-179" type="line"/>
      <point x="331" y="-179" type="line"/>
      <point x="417" y="312" type="line"/>
      <point x="278" y="312" type="line"/>
      <point x="192" y="-179" type="line"/>
      <point x="-29" y="-179" type="line"/>
      <point x="57" y="312" type="line"/>
      <point x="10" y="312" type="line"/>
      <point x="36" y="461" type="line"/>
      <point x="83" y="461" type="line"/>
      <point x="102" y="569" type="line" smooth="yes"/>
      <point x="119" y="665"/>
      <point x="183" y="730"/>
      <point x="283" y="730" type="curve" smooth="yes"/>
      <point x="409" y="730" type="line"/>
      <point x="381" y="574" type="line"/>
      <point x="363" y="574" type="line" smooth="yes"/>
      <point x="333" y="574"/>
      <point x="321" y="552"/>
      <point x="315" y="521" type="curve" smooth="yes"/>
      <point x="304" y="461" type="line"/>
      <point x="443" y="461" type="line"/>
      <point x="462" y="569" type="line" smooth="yes"/>
      <point x="479" y="665"/>
      <point x="543" y="730"/>
      <point x="643" y="730" type="curve" smooth="yes"/>
    </contour>
  </outline>
</glyph>
<glyph name="a.salt" format="1">
  <advance width="625"/>
  <outline>
    <contour>
      <point x="606" y="461" type="line"/>
      <point x="523" y="0" type="line"/>
      <point x="299" y="0" type="line"/>
      <point x="307" y="47" type="line"/>
      <point x="269" y="15"/>
      <point x="227" y="-8"/>
      <point x="177" y="-8" type="curve" smooth="yes"/>
      <point x="61" y="-8"/>
      <point x="-4" y="76"/>
      <point x="-4" y="187" type="curve" smooth="yes"/>
      <point x="-4" y="319"/>
      <point x="100" y="469"/>
      <point x="241" y="469" type="curve" smooth="yes"/>
      <point x="299" y="469"/>
      <point x="342" y="450"/>
      <point x="372" y="414" type="curve"/>
      <point x="382" y="461" type="line"/>
    </contour>
    <contour>
      <point x="350" y="276" type="curve"/>
      <point x="342" y="291"/>
      <point x="324" y="311"/>
      <point x="290" y="311" type="curve" smooth="yes"/>
      <point x="242" y="311"/>
      <point x="206" y="264"/>
      <point x="206" y="218" type="curve" smooth="yes"/>
      <point x="206" y="175"/>
      <point x="228" y="150"/>
      <point x="263" y="150" type="curve" smooth="yes"/>
      <point x="299" y="150"/>
      <point x="325" y="170"/>
      <point x="340" y="222" type="curve" smooth="yes"/>
      <point x="344" y="236"/>
      <point x="348" y="255"/>
    </contour>
  </outline>
</glyph>
<glyph name="f_i" format="1">
  <advance width="672"/>
  <outline>
    <contour>
      <point x="693" y="695" type="line"/>
      <point x="663" y="525" type="line"/>
      <point x="435" y="525" type="line"/>
      <point x="465" y="695" type="line"/>
    </contour>
    <contour>
      <point x="409" y="730" type="line"/>
      <point x="381" y="574" type="line"/>
      <point x="363" y="574" type="line" smooth="yes"/>
      <point x="333" y="574"/>
      <point x="321" y="552"/>
      <point x="315" y="521" type="curve" smooth="yes"/>
      <point x="304" y="461" type="line"/>
      <point x="366" y="461" type="line"/>
      <point x="340" y="312" type="line"/>
      <point x="278" y="312" type="line"/>
      <point x="192" y="-179" type="line"/>
      <point x="-29" y="-179" type="line"/>
      <point x="57" y="312" type="line"/>
      <point x="10" y="312" type="line"/>
      <point x="36" y="461" type="line"/>
      <point x="83" y="461" type="line"/>
      <point x="102" y="569" type="line" smooth="yes"/>
      <point x="119" y="665"/>
      <point x="183" y="730"/>
      <point x="283" y="730" type="curve" smooth="yes"/>
    </contour>
    <contour>
      <point x="649" y="461" type="line"/>
      <point x="568" y="0" type="line"/>
      <point x="344" y="0" type="line"/>
      <point x="425" y="461" type="line"/>
    </contour>
  </outline>
</glyph>
<glyph name="macron" format="1">
  <advance width="500"/>
  <outline>
    <contour>
      <point x="454" y="615" type="line"/>
      <point x="434" y="498" type="line"/>
      <point x="114" y="498" type="line"/>
      <point x="134" y="615" type="line"/>
    </contour>
  </outline>
</glyph>
<glyph name="onesuperior" format="1">
  <advance width="385"/>
  <outline>
    <contour>
      <point x="272" y="325" type="line"/>
      <point x="107" y="325" type="line"/>
      <point x="150" y="566" type="line"/>
      <point x="129" y="551"/>
      <point x="101" y="544"/>
      <point x="70" y="542" type="curve"/>
      <point x="90" y="657" type="line"/>
      <point x="133" y="662"/>
      <point x="166" y="676"/>
      <point x="200" y="730" type="curve"/>
      <point x="344" y="730" type="line"/>
    </contour>
  </outline>
</glyph>
